<mxfile host="Electron" agent="Mozilla/5.0 (Windows NT 10.0; Win64; x64) AppleWebKit/537.36 (KHTML, like Gecko) draw.io/24.7.17 Chrome/128.0.6613.36 Electron/32.0.1 Safari/537.36" version="24.7.17">
  <diagram name="Page-1" id="bRZi_fu8KbcqWKbd9xcu">
    <mxGraphModel dx="1547" dy="1463" grid="1" gridSize="10" guides="1" tooltips="1" connect="1" arrows="1" fold="1" page="1" pageScale="1" pageWidth="1000" pageHeight="1000" math="0" shadow="0">
      <root>
        <mxCell id="0" />
        <mxCell id="1" parent="0" />
        <mxCell id="fGU3WEagON-DqYOOjsWN-108" value="" style="shape=stencil(nVjZchpBDPwaXlUjac5nx/kPVxnHVBzjwuT6+2hDZsNo2SbkDVg1q6PVI81G796fH962Gwnvx8P+8/b77vH4vNEPG5Hd6/P2sDvap43eb/TuaX/Yfjrsv74+nr6/PUyW06cv+2/TP/w44XKiJBNKws/TL0wl/f7h48n+Zfd6bi/UdLCPVBnYB6rj/1cKum6fKpU6+sMUCwBk/wJOFAIAxP54BlTKIIQUiHkAiFAALsVENY2ARAqCjkzJASopcEnnxx2godflMiBTzCNAiSsESBwBmRoghpZe15kYlrcGAS5LUSmCwlnQMhYuFko4SzJyKTbKwCXzOI+ApJRRpXMnwgwwOoI3JPaFS+aSwH6Q8Q3WgQwqnQvlsdLW4qgOJXsFyJUaoEZV0pEaRShlAGjUxqBLogIq3ZIXgVKhyrTSH88qYy0FstSsgca01kiMXDKNGMlXc+fvGqCOdbA0CKh0a10jOqAxVUA+A9QxSy12/l4EcAhe+ixxEflU+2EwA4yPKGrjWvQASKbW6zQDGiaTXAA0wI0Svc6c5WGthVT8KypIkx1yJXiAIhkwgrNPEzp2k/ggrHIorwaI6gF/SrN2LCYXQ+59vqZM1b0hUUajQ+wenwGQSyYr0jzBUUdUqyvfBFhWGrvUtA8j/xj0pEw3pXWi2qgbVwpngBg9AFHDHEiuDph8pkMegOltWtqKB6AGKsWz9WqPNirZvwLJgB2bSwASmmRpX2gfbDmltNA+JJZpyW8sx/8DcAONEVjRcGxToWsIpoCUzIJ2B2mFB6kB3NleE66D9haeAQJP3ukNYwymC3DA516ms3FDgEs24LuxzwYaBnWwSdQNZYW7LlwGsD94M3bJVhI3DExyCyYgjj7ozL1rLze17x+bXBlkNS4m3QQdCj4AK0sDzFvMMleG+0Ay+mNVVNDOweuwbWkF6DD39WhemCrktbF05JBawdB568d0ld5Ja/Ua82MrYkSEkJ7ueQktVEBCufgMTXcBwCPjqI4uTZcNgEJi69UYs63qqGYyN8kMMJdAUqX10/vsugEJpDUmj1kqcDOxNVvGEOY5a23vZnc7QRGt3dmrI8O7CSOlmxZCV8u1lbh4e8Qi2+GzOHsB8doG3bx9QKdB6Ok4s7/ptsfsUZfZRJidPYN82uivPj+IodMYUpx9BvHmxVjOeC5Ki0mqb7pr9rfd/121tw9/Lxufdi8vp7vK8+f+ctJ+Ol1s6v0v);lineShape=1;strokeColor=default;" vertex="1" parent="1">
          <mxGeometry x="310.9830564283702" y="523.7338316779417" width="12.629431971907934" height="116.68297367994842" as="geometry" />
        </mxCell>
        <mxCell id="fGU3WEagON-DqYOOjsWN-109" value="" style="shape=stencil(lVbbUttADP0av2qk1V6fKf0PZgjEQ0iYENry98h110S7sZK+2d5zvLoeaeC79+3D22Zw+H46Hl42v8fH03bgH4Nz4367OY4neRr4fuC7p8Nx83w8fOwf5/e3hwk5Pb0efk1/+DPzPHCZSA4/5w8IiH8//Jzhu3F/Bhf8v+OKZ4gGnhMkjY/gDHwQe4LCZ8Cyjo8Rora/gI/r+OTB+8aeENbx2cF0doYnYFrHlwSo/08eChuEDBwVwTnwziAUYH0DM3gjpEIoOgU+QvI2IekYUfVqjRC0SRLmZGRNnI76hixpMNImYW3SVgKQFaXQ+jAZmQyCFAa3BG857aBkTRCnjVIqBElnOouRVpQQCrVhxWwSgiZEBGeFFSFqgg/VqzUfSLcbO0hWebva7kt5U/XqMoEhNA3nIVp5CIA6cURVEy4TllJbCAxslUaCojWJpDSsGwpg09PlWk83peEdkBFWQmx1OIiwWk6U2vNLMaHtdWlvEC0sVn0nyE1DuGuJ8A0hQ7CqT6S0EVe0x5VUU6sbEfIVQvgfQj8gMlYrb5xAKdQZeeOIS85U136Gyp1kyEA/pFMENFLdbwFJFN0gdFvGFDYDLw2pezpTbanLBrX4lOpIutw/dUlY8LYqYVX2RVi9qQCL7C7dKTk2/4/diLaUvsNzBDKaubNnWnuM+HT+UqoKdVs8CeuWspYv3QPeDE9XDssYuq3abJG4CpeH7/X5adzt5u37/Lxdt+XTvKrz/Rc=);lineShape=1;strokeColor=default;" vertex="1" parent="1">
          <mxGeometry x="293.9807065122011" y="573.3674401965761" width="41.439782355652824" height="4.456241133521189" as="geometry" />
        </mxCell>
        <mxCell id="fGU3WEagON-DqYOOjsWN-110" value="" style="shape=stencil(fZbdcgIhDIWfZm8zQAg/17Z9j85U606tdqz9e/tmZ0c0uJ47xP0I5JwEBl59bp8/1kNwn6fj4W39M76ctgM/DCGM++36OJ50NPDjwKvN4bh+PR6+9i/z74/n6ctp9H74nlb4nbmSKZeJCu5vngmZ6jzzNAO7cX8FVKEsBuBKrgKg9oAE8gkCbLeUhEoEQKSUDZDLeWYRKIl8MEDRmHwfyBrBG6Amyu4+kDxxMoB3jhwgYu7TVAsVkFcWCs4CTBEoF4RctKeOxHIf8IXYpikHikAIf+MNUW94AGSSaoAoFIE3AlOyeWU+p2E5S9yfQZcQILVuQOwZdJNoS9Ls3wA5u2XZTIHECqeJ9kDpSaauRiNVcAY1QhdBzeLBli5WazpkSsBLV25uRaqWRyFawTQzRRIQYirJzq5atkBqLfouwqUxLBepthWb10vrWZY6UOAeyKCCtDV625mm9gmUC4Wc3VLJMMIE1BsA2FW9JraVlQB7n3c9oMKhCLEvIM1zBPZ25/umNQ1tVEC2G+fFCC8g398O2hNQuQlVu752DBfA+q0ptnqO5JFmeuIuo9DY7KjY71UxdJV4EntifPWorW++R/dC4t7V3DlIB5cHx2bc7eb3yvX//QNFp+bHDT/+Aw==);lineShape=1;strokeColor=default;" vertex="1" parent="1">
          <mxGeometry x="318.4679364284134" y="525.0753857007069" width="4.672539772115215" height="4.665236216357243" as="geometry" />
        </mxCell>
        <mxCell id="fGU3WEagON-DqYOOjsWN-111" value="" style="shape=stencil(lVZBctswDHyNrhgSIAHynKb/yEyc2lPXzjhO2/w+UBWyAmuhk5ts7YoAuLvkRHcv+4fn3YTh5Xo5f9/9Ojxe9xN9mRAPp/3ucrjq00T3E909nS+7b5fz6+lx+f38MCPnpx/nn/MXfi+8ArXOJAxvyx9RIMqff74u+OPhtMIjQWZDKFDCNp4YYjT4BJG38TlDQYMPEJzvcwGUAY8OvghUi48BUt4m1AhlIBAEp4OagbIhzC1Uh1Ag2JYpuDOtFdgSUvJLqmPTuUDySqoQbA+CkItDYKjJyiJB8Uqi9roRqvZADiFAtCVpkTE5O63KKyOBnZ0uCDQQMuS4TRAtgGzT0oq8TWAQ6zbJrvj0dbYEjsDOlJTAdqeTuFMSgWD9SepwR3zadLIrILYxbI31Q8zdQAnQIzCw1ZJa9EPwW9LgYQWdkqdWLcCKT1OPPMcJoC0JGYpvIBw8rXNz9iGGnnPdo+TKVZfIlqBZ6DpIQIbojn5spDE2NAzJ6zpCsobQNau31TL2sJrDJiN+isH4z4lF7dC7SUh9jJ2gEnbkNGvBdlG6DW9vNgLaJjQOPYIGF4/46uClnbEdj+2Mud3yGMbzMeloD5v4V0ryRqqysUKSBMmZaGgy69LO7RTewI/eYdc7oQXQKiXJwXefdDcXyI6usXl9daKzJ7mWPj1eNKGc+XBbvZugut//7C3v/3h9+HulfDocj8uNdP1+vILqX8v1le7fAQ==);lineShape=1;strokeColor=default;" vertex="1" parent="1">
          <mxGeometry x="318.4266518120046" y="524.086330507241" width="20.506698820387783" height="5.618550083360105" as="geometry" />
        </mxCell>
        <mxCell id="fGU3WEagON-DqYOOjsWN-112" value="" style="shape=stencil(fZbdcgIhDIWfZm8zQAg/17Z9j85U606tdqz9e/tmZ0c0uJ47xP0I5JwEBl59bp8/1kNwn6fj4W39M76ctgM/DCGM++36OJ50NPDjwKvN4bh+PR6+9i/z74/n6ctp9H74nlb4nbmSKZeJCu5vngmZ6jzzNAO7cX8FVKEsBuBKrgKg9oAE8gkCbLeUhEoEQKSUDZDLeWYRKIl8MEDRmHwfyBrBG6Amyu4+kDxxMoB3jhwgYu7TVAsVkFcWCs4CTBEoF4RctKeOxHIf8IXYpikHikAIf+MNUW94AGSSaoAoFIE3AlOyeWU+p2E5S9yfQZcQILVuQOwZdJNoS9Ls3wA5u2XZTIHECqeJ9kDpSaauRiNVcAY1QhdBzeLBli5WazpkSsBLV25uRaqWRyFawTQzRRIQYirJzq5atkBqLfouwqUxLBepthWb10vrWZY6UOAeyKCCtDV625mm9gmUC4Wc3VLJMMIE1BsA2FW9JraVlQB7n3c9oMKhCLEvIM1zBPZ25/umNQ1tVEC2G+fFCC8g398O2hNQuQlVu752DBfA+q0ptnqO5JFmeuIuo9DY7KjY71UxdJV4EntifPWorW++R/dC4t7V3DlIB5cHx2bc7eb3yvX//QNFp+bHDT/+Aw==);lineShape=1;strokeColor=default;" vertex="1" parent="1">
          <mxGeometry x="322.46793642841317" y="632.2753979077379" width="4.67253977211567" height="4.665236216357243" as="geometry" />
        </mxCell>
        <mxCell id="fGU3WEagON-DqYOOjsWN-113" value="" style="shape=stencil(lVbbcloxDPya87pjW7ZkP6fpf2QmpDClkCGkbf4+oqcmyAc0yZs5aK3bauWJ7l7WD8+rKYWX42H/c/Vn83hcT/RtSmmzW68Om6OeJrqf6O5pf1j9OOxfd4/z7+eHk+Xp9Gv/+3TD3xkXBbGdUCm8/f8SEMu/L99nwHazuwBQRakGUFHzbXtpiGLsA0K4bV8LKNqAEJz7W+zXdXvx7Qs42/sFJA6gQooBUEBzPMQQxpAyg5yatobEBsARjR0Ag22RhBE9QAIl2zVBdkKqjGqzbhnsAQLE5tC0EdEhRoaE0UOqtwHcQBagQYrTCC6INmkpne3XAWksKwdUcgHBesil0/06gJCth9R6oa8DuFf9TFdGdjxIBNmBVnsnBVEBoGE+xalRpd6kD/vo3F/bKDAZJTlMVRIM80koDo+UZm0oKbsKptNWh/GMnSi3AGJLVNhtmobENmftCjtFbTTmUDOip5IqSlZVdcLFoUVNqJapqiFun78KWC6GCyG8LpSL3aNa65VJmRAGUVIVczwo9yyXtNDsdLpAhjYIitPo1BfBuc8NxenCclcFl3mLRVJaX0afs88NwZHURTzaRHHiWeSrFU5Ovot6qkdP4lsf3DOFCpITz5IQMSJ7u/mrz51PAPTw8bp62my38+Ps8v/xNaaf5pcc3b8D);lineShape=1;strokeColor=default;" vertex="1" parent="1">
          <mxGeometry x="322.56640715933827" y="631.8817589226692" width="11.827881771569992" height="4.627559507955084" as="geometry" />
        </mxCell>
        <mxCell id="fGU3WEagON-DqYOOjsWN-114" value="" style="shape=stencil(lVjLbhsxDPwaXwlJ1POcpv8RIE5jNI0Dx339fbkwtFnNeic1kIPtcHYlcmZIaad3788Pb/tdcO/n0/H7/vfh8fy80y+7EA6vz/vT4Wyfdnq/07un42n/7XT8+fp4+f72MEVOn34cf01P+HPBeS8hTajg/l5+yTJ9s7+vl/iXw+syPooPQ7xXyZ4AkpQREFR8pYBWBoCqBA7wbQBEFY237CEFCQyg4twIaFIcAXipkNUklWXJSR03XaLERAFpXFL1EgsF5HFJtYpXAsg96wtAIdQIQaIioGYCsOetlsTeoFFSQEAkdYhW1zGttdC0JicelpR7Za4DsjiPgEIqnQNyyQCZ7CEXKSO9qymEpNWY46EOUTKhdw2dOQsAS2ttkioCPNm0rThClhzV9AQAPXgqUQOAHrLStFrWA2g6SmsEULoxzjaTxLE9ZGljHTTzOuSexBngxRHyWdbdWIdglWZLMl8C926ijEsF24MplKyomFrGFeVuO5vPH3NkEiemVCquJ0hm8U3q+HzfBf6fCXKcdhHV7PoPmyVOEM/8yPzN4foTi28S80gh2mybQ5O3Zkrqa/Eg5CLKhL/Kv/GNEbT2YWLerxWMEHSy53HDPtA+aBUDO7XuTt8QJK0B7A3Wmv1qScRZjNQl46YDYZGpBvpg6613S5VtjLeqMRUXZF2iQ6HF1wisC1yVoGLfc7ylSuhojtdYse1/osrURbhQPVn/xxCxcBWSH1OBQ9di+zWVga9bP+Yqvi1+Nc8a4djE3GzKAYbWbvTXARV9wijkSEqb+cK4JA3Uqb1zuIlowmObaL11zayeDz9bAA8zhaNWYbuuo1XY8MbGHHsD7KGkPlptAcKoNON6ZJuuvV/MVhEoV9vstzPA9sDEGXrWFwDawxMOUp8AcpU2ksl2xcac9Yw9VYaN/cbviIBC0mrnBNXVkkha7Uia6y0ATTifThIhWbIeACbZ+CHVTAh6/0JTW2fIsH4FO9aKAvkitY2VpKf5hzzf2sDIJOu9lXDVY98sSsWgfViZ9WzzHqsyTjup0nEno9bMkZQ12tVNR6C8LpJhGlRqL6UPNovzRCKGN19qzAzK/Y3XKScN+NBdfyO8AB2om67CC+3iq8Xwmy/Fnp+oLUYsbexT4UYmHU5Qjd0irMNZ6yvYyLQL57qlIw3409s6nK3dXASmIZ4ai4fxmGf+5ivNT+Ptw8f96dPh5eVy/br8P9632k+Xu1q9/wc=);lineShape=1;strokeColor=default;" vertex="1" parent="1">
          <mxGeometry x="335.8602315756332" y="498.89478589223813" width="44.19485173108092" height="45.194850956279424" as="geometry" />
        </mxCell>
        <mxCell id="fGU3WEagON-DqYOOjsWN-115" value="" style="shape=stencil(fZbdcgIhDIWfZm8zQAg/17Z9j85U606tdqz9e/tmZ0c0uJ47xP0I5JwEBl59bp8/1kNwn6fj4W39M76ctgM/DCGM++36OJ50NPDjwKvN4bh+PR6+9i/z74/n6ctp9H74nlb4nbmSKZeJCu5vngmZ6jzzNAO7cX8FVKEsBuBKrgKg9oAE8gkCbLeUhEoEQKSUDZDLeWYRKIl8MEDRmHwfyBrBG6Amyu4+kDxxMoB3jhwgYu7TVAsVkFcWCs4CTBEoF4RctKeOxHIf8IXYpikHikAIf+MNUW94AGSSaoAoFIE3AlOyeWU+p2E5S9yfQZcQILVuQOwZdJNoS9Ls3wA5u2XZTIHECqeJ9kDpSaauRiNVcAY1QhdBzeLBli5WazpkSsBLV25uRaqWRyFawTQzRRIQYirJzq5atkBqLfouwqUxLBepthWb10vrWZY6UOAeyKCCtDV625mm9gmUC4Wc3VLJMMIE1BsA2FW9JraVlQB7n3c9oMKhCLEvIM1zBPZ25/umNQ1tVEC2G+fFCC8g398O2hNQuQlVu752DBfA+q0ptnqO5JFmeuIuo9DY7KjY71UxdJV4EntifPWorW++R/dC4t7V3DlIB5cHx2bc7eb3yvX//QNFp+bHDT/+Aw==);lineShape=1;strokeColor=default;" vertex="1" parent="1">
          <mxGeometry x="370.4679364284134" y="498.6753612866444" width="4.672539772115215" height="4.665236216357243" as="geometry" />
        </mxCell>
        <mxCell id="fGU3WEagON-DqYOOjsWN-116" value="" style="shape=stencil(jVbLctswDPwaXXdIgiTIc5r+R2bi1Jq6dsZxX39fsBqlBlShvUnUQsQCiyUneng7Pr0ephTebtfL58P3+fl2nOjDlNJ8Ph6u802eJnqc6OHlcj18ul6+np+X99engRxPXy7fxh9+LHGUkWlEpfBzWYkhIITfSx+XiNN8votIhJxURGfUtB8QCaXqgAAu+wEFrSt8C4hORhEpKnyt4LaPf+e34ktC7A5jZI0nRqv7+IZYFF4YJef/saLqAsUC9hJiBN2CGEBORiQpmRag8D4+N3SzgXTdyahsOUcw7QfUjG6KKjtEJ6AhawqZQY7stgE1ojsctilxWVd2SWctVEZxhDfKqpXaResOadqUtXe3rEMZZgfZ0wkY2jM7yLg6pDcZtezbhR0ejqt//OdwCiVveOzw54TilLTYJssoeMM/3Iv1KDSU7PujcdSI6gzbsGAtow5yKrq1bB+fCaQZ0NrDv1dIPmu8fyBUQqoW73SYCaGafJKDbzK2zfD1nKKJtxnzau4GMoRJN2BowrFTmammRZSj66d3Z+q7rDPYUZFswboJlVfz2CNhuianJvllsjKK/+pDM8fU5qogD39uGi/z6bRcVO6/25uJLC23Gnr8BQ==);lineShape=1;strokeColor=default;" vertex="1" parent="1">
          <mxGeometry x="369.2163778497161" y="497.58206501319773" width="5.818851482686114" height="4.4246335074510625" as="geometry" />
        </mxCell>
        <mxCell id="fGU3WEagON-DqYOOjsWN-117" value="" style="shape=stencil(fZbdcgIhDIWfZm8zQAg/17Z9j85U606tdqz9e/tmZ0c0uJ47xP0I5JwEBl59bp8/1kNwn6fj4W39M76ctgM/DCGM++36OJ50NPDjwKvN4bh+PR6+9i/z74/n6ctp9H74nlb4nbmSKZeJCu5vngmZ6jzzNAO7cX8FVKEsBuBKrgKg9oAE8gkCbLeUhEoEQKSUDZDLeWYRKIl8MEDRmHwfyBrBG6Amyu4+kDxxMoB3jhwgYu7TVAsVkFcWCs4CTBEoF4RctKeOxHIf8IXYpikHikAIf+MNUW94AGSSaoAoFIE3AlOyeWU+p2E5S9yfQZcQILVuQOwZdJNoS9Ls3wA5u2XZTIHECqeJ9kDpSaauRiNVcAY1QhdBzeLBli5WazpkSsBLV25uRaqWRyFawTQzRRIQYirJzq5atkBqLfouwqUxLBepthWb10vrWZY6UOAeyKCCtDV625mm9gmUC4Wc3VLJMMIE1BsA2FW9JraVlQB7n3c9oMKhCLEvIM1zBPZ25/umNQ1tVEC2G+fFCC8g398O2hNQuQlVu752DBfA+q0ptnqO5JFmeuIuo9DY7KjY71UxdJV4EntifPWorW++R/dC4t7V3DlIB5cHx2bc7eb3yvX//QNFp+bHDT/+Aw==);lineShape=1;strokeColor=default;" vertex="1" parent="1">
          <mxGeometry x="347.26792422138215" y="500.2753979077381" width="4.672539772115215" height="4.665236216357243" as="geometry" />
        </mxCell>
        <mxCell id="fGU3WEagON-DqYOOjsWN-118" value="" style="shape=stencil(7VjLbhsxDPwaXwlJlETpnKb/ESBObdSNA8fp4+/LraGtSXsnMFCgKNDbZkOu+BgOx1rx3evm4WW9SuH1eNh/Xn/bPh43K/6wSmn7vFkftkd9WvH9iu+e9of1p8P+7fnx9PfLw2Q5PX3Zf52+8P3k10h4ckrhx+lFoBB+vfh4Mt9tn8/Mo1BMzr4Dey6UxdgXSrxsn4WCjadRbsv2pVGy3+/U6rJ9bcTF2EdNuC87tEDVByQgoB6Is7GvJCCgnqjaBIR6BvZ55DcnECmDDvRKLViHSj0Bh4sSpUwJndAp25Q5UYsARGEG2fDIiVK5yaNE6oKDsn2rWicQ1JS2zUL0TORQBxBmB6GEoKGts4VtafRmERvOoVJC4FDw2elsAsEhnUq04zPj8fr8dJ90L6PQ1we0U7A5dAxw7p4xzpp/3aMS21ZrLwNIgplK8FkjEuA4GnvWuQoclIW6rauCqYGs1aHYzhUhQSEFirauOY8zl3IQ6zCVAcwcZ4p2IJQHGsA3y6j63DklY0T2YaB5dmiQmjIT27ImzBu5ULdsqYXOgI51/3TbB8UjmtGsEVtolATZMne/4WoZzLN0QrA5KM+gHZcrRYdWXaKoSgqEi6HuAHzauOImTnkBjagQV+8QEZYycbcOeQztEry7xZJyZUQ8o+BzZc2jlYsj6hqXYA5pRv88ov09mnHiahopVCX26idhvleqdGycIqbK7rGkIyqINdRBbnFQnqu206oxUZUU/WKrpBKOkcT6G5KMQQaTcnAp/5dk/44ks73+05JMf3AUR2QFNkJ/0jjWaDyobWniHPw0aQZVmraoXbstDvWxKB3sCdJgSIr/ZKEhcQii6yTgR06rIAB7hZoNqApeup4nK8ONmIaqmGcBKxkVlLaiqhqQjA6jQWdqD2mxi9lU5hf4/eiEVRsMsmDvSFvfoPWs4tN+PzLkbPaYFqxg/KZVfxBNvbz0KAA8N96RvGuuD7+vY562u93pNuf8//76Rl+drn74/ic=);lineShape=1;strokeColor=default;" vertex="1" parent="1">
          <mxGeometry x="347.2360890674704" y="500.2341664209223" width="26.080369618332497" height="6.299014568025768" as="geometry" />
        </mxCell>
        <mxCell id="fGU3WEagON-DqYOOjsWN-119" value="" style="shape=stencil(fZbdcgIhDIWfZm8zQAg/17Z9j85U606tdqz9e/tmZ0c0uJ47xP0I5JwEBl59bp8/1kNwn6fj4W39M76ctgM/DCGM++36OJ50NPDjwKvN4bh+PR6+9i/z74/n6ctp9H74nlb4nbmSKZeJCu5vngmZ6jzzNAO7cX8FVKEsBuBKrgKg9oAE8gkCbLeUhEoEQKSUDZDLeWYRKIl8MEDRmHwfyBrBG6Amyu4+kDxxMoB3jhwgYu7TVAsVkFcWCs4CTBEoF4RctKeOxHIf8IXYpikHikAIf+MNUW94AGSSaoAoFIE3AlOyeWU+p2E5S9yfQZcQILVuQOwZdJNoS9Ls3wA5u2XZTIHECqeJ9kDpSaauRiNVcAY1QhdBzeLBli5WazpkSsBLV25uRaqWRyFawTQzRRIQYirJzq5atkBqLfouwqUxLBepthWb10vrWZY6UOAeyKCCtDV625mm9gmUC4Wc3VLJMMIE1BsA2FW9JraVlQB7n3c9oMKhCLEvIM1zBPZ25/umNQ1tVEC2G+fFCC8g398O2hNQuQlVu752DBfA+q0ptnqO5JFmeuIuo9DY7KjY71UxdJV4EntifPWorW++R/dC4t7V3DlIB5cHx2bc7eb3yvX//QNFp+bHDT/+Aw==);lineShape=1;strokeColor=default;" vertex="1" parent="1">
          <mxGeometry x="351.26792422138215" y="501.0753857007069" width="4.672539772115215" height="4.665236216357243" as="geometry" />
        </mxCell>
        <mxCell id="fGU3WEagON-DqYOOjsWN-120" value="" style="shape=stencil(lVjJctswDP0aXzEkwA3nNP2PzMRpPE3jjONuf1+oLlUTkp+dm0zzCdvDpo3cvT8/vG03HN6Ph/3X7c/d4/F5I582zLvX5+1hd7Snjdxv5O5pf9h+Oey/vz6efr89TDenp2/7H9Mbfp1wMVCLE4rD79NJpqh/Dz6f7r/sXsf7WYf7MZEGCChpADCTZAiodQQ0yhUAIoUyAMQAEQKEB0Cq2OhIdZSQCxUkQboCHVAyNeSlTNoGQE3dDeuASjkPgBapCQAo8ahSaxT4MkCY8mh0S1TKZUASis0DIgBkoTBGukm3ahVQYmfOGeCfzFVADZ05M4CpAAm1Uk0ewOkyoBkRgo+DgjhoXKhkKQi8pLKIdKCEAHkFUEGktZIUbwOit7ZO5rM4BOBWVaqOfIkaoncIFJyIAuuMiSji+a3YiDK6Sc1NSELtbJ4B3Al8KRASPQDaICSj0XYSAL+NTJK8hAIktIWXJj4CL5kTPTcU8rtV79apziAJVslc2bBiCNxq74tOQsIS1Nd7S2oBSW1E0EVxjSipubP5LOUySjmjvy4AKKkLVfUqMUo5C9yi9EGVlFL1bmVktPqeZSnKKOO0d6gzakAblIKjd6CIAld9nTF6F5yiusjpAkaBDwPaPCnMgEQJeGlqQdUDIgJY/xjpbVWjAYC1UV2UGTSd5OQzzlRiYHRKvmqY31BtFfOJkzA3pVUAFz+dKC73bPk1ku+sx6z3IO5VZRahsMtZpF0cImRrJl7MSwIUSn1InWfESg1N0r7GlEYJ6GO5NdIiV2IQg0WLvjJGh/62G+f04OeYK4tA6Kl+46Zh7d4xAq8ypo/zzxVzXSMUUuB922LGaHFfOi4Fd1QmwhmPva2hk2M9H32lDpCZ2ddpnFnFEx9fr5T0A8o0v6FiU7V3xdscaespj/evxCn0pelGGnx8Ib9y3x7+b/9Pu5eX08eD8//91wI7On1pkPs/);lineShape=1;strokeColor=default;" vertex="1" parent="1">
          <mxGeometry x="332.623325169581" y="554.6503473266253" width="42.008023668903206" height="41.45436428866333" as="geometry" />
        </mxCell>
        <mxCell id="fGU3WEagON-DqYOOjsWN-121" value="" style="shape=stencil(3VjLUhtBDPwaX1Xz1uhMyH9QhQmuEEwZ8vr7aONovaO1O5BLKrmZRT2jR09LM5t89Xx/87TdpPD8cth/3H7d3b7cb/K7TUq7x/vtYfeivzb5epOv7vaH7YfD/vPj7fHvp5vJcvr1af9lWuHbEcedep5QKXw/fpFIsf/88v4IeNg9LgA9UykDoBcKEQCEWhgA3KgkAKjepdZtz0sucRoAtVAXHEMdAKURoxgy5TYAslDAWUoyAhKlCgG/1jNASlTwDm10KVaSAACFZNyhU0BJYqpjGRIJA/u+cogY+COBwrh+IAYZUl5WcfYR+CNaguLsA/JHOcPOHlVMlMXB2SPSCRMXlx8BnBM9mXGkEKUM7IWqIzUxyo/Y9vMxo9KgvctPp4jiFS8UugBaX/nj8hMpgxMgyscx4FjsXF8SljRWLDZKQIlUHKPbgamBmDl4nYhCERStrUiqLMoAUDPVsWrTMQPiqMrmj3GyqM4CcjcHlkoEXEorgVdAA8ye/p08IAOqqrI5vdYsCaqDnZSFfUdJMuVc2BcUAfUxAC0zIlKkNBZNeYTWD54VmoEI/A/WgWd7TTE4OoGqW193BGdTKTZKb8cUsvKflKWC8lafzUoNNRqbT07maHUNrTTnDYw1eV1n6E7MXqfFGuF5++J1WncMiDwKcGzTL6CTqUe+0zRIf3XATStRmw/aQUXKqZA2YxB0twiXBxJsUP0sofYNRKAD3dib9ECi4SPa8VgEHECRg81iy2ELaOI8asz2GZZMj59bP1JAFaM8ro/rteqUDBlXKYzmFU42TFmceQXi9kbzqVsU53xE9uv7BiR/rl782bJ1vlesRnsshjXZFPO6ualFL+YML2SNbcxbVAulv9rYfJoT4f3tD+4BTt/++j3Ar//P3wPA4f0/7wEoALb6LMQ5IY/qmZEYXRwUkFe3eTSPKcDFrFM1EiEFtNElnduRqijrnErozSBj2rUxhoYfSWJYNTHOv2NqHH3qBVN1JY0yN8JLWtQdl9g6/3lAs3vCDOiw2/S5r88AsVnn0rOKe3yaDgh+SypunAtYkbqSbb0FmrZmBVoGgTq4rGbYboS8dDP2aWK71F0CuIlF8Csgs3WZGaCNC2SJ2Q85qvyMY3C3LJlH/0uAt72VvgKgP05Ps3e7h4fjy+7y//4pVz8dn4Hz9Q8=);lineShape=1;strokeColor=default;" vertex="1" parent="1">
          <mxGeometry x="339.865433584564" y="554.1474681705567" width="40.24048101476092" height="38.433219971881954" as="geometry" />
        </mxCell>
        <mxCell id="fGU3WEagON-DqYOOjsWN-122" value="x" style="shape=stencil(fZbdcgIhDIWfZm8zQAg/17Z9j85U606tdqz9e/tmZ0c0uJ47xP0I5JwEBl59bp8/1kNwn6fj4W39M76ctgM/DCGM++36OJ50NPDjwKvN4bh+PR6+9i/z74/n6ctp9H74nlb4nbmSKZeJCu5vngmZ6jzzNAO7cX8FVKEsBuBKrgKg9oAE8gkCbLeUhEoEQKSUDZDLeWYRKIl8MEDRmHwfyBrBG6Amyu4+kDxxMoB3jhwgYu7TVAsVkFcWCs4CTBEoF4RctKeOxHIf8IXYpikHikAIf+MNUW94AGSSaoAoFIE3AlOyeWU+p2E5S9yfQZcQILVuQOwZdJNoS9Ls3wA5u2XZTIHECqeJ9kDpSaauRiNVcAY1QhdBzeLBli5WazpkSsBLV25uRaqWRyFawTQzRRIQYirJzq5atkBqLfouwqUxLBepthWb10vrWZY6UOAeyKCCtDV625mm9gmUC4Wc3VLJMMIE1BsA2FW9JraVlQB7n3c9oMKhCLEvIM1zBPZ25/umNQ1tVEC2G+fFCC8g398O2hNQuQlVu752DBfA+q0ptnqO5JFmeuIuo9DY7KjY71UxdJV4EntifPWorW++R/dC4t7V3DlIB5cHx2bc7eb3yvX//QNFp+bHDT/+Aw==);lineShape=1;strokeColor=default;" vertex="1" parent="1">
          <mxGeometry x="336.0679120143509" y="556.2753979077381" width="4.672539772115215" height="4.665236216357243" as="geometry" />
        </mxCell>
        <mxCell id="fGU3WEagON-DqYOOjsWN-123" value="" style="shape=stencil(fZbdcgIhDIWfZm8zQAg/17Z9j85U606tdqz9e/tmZ0c0uJ47xP0I5JwEBl59bp8/1kNwn6fj4W39M76ctgM/DCGM++36OJ50NPDjwKvN4bh+PR6+9i/z74/n6ctp9H74nlb4nbmSKZeJCu5vngmZ6jzzNAO7cX8FVKEsBuBKrgKg9oAE8gkCbLeUhEoEQKSUDZDLeWYRKIl8MEDRmHwfyBrBG6Amyu4+kDxxMoB3jhwgYu7TVAsVkFcWCs4CTBEoF4RctKeOxHIf8IXYpikHikAIf+MNUW94AGSSaoAoFIE3AlOyeWU+p2E5S9yfQZcQILVuQOwZdJNoS9Ls3wA5u2XZTIHECqeJ9kDpSaauRiNVcAY1QhdBzeLBli5WazpkSsBLV25uRaqWRyFawTQzRRIQYirJzq5atkBqLfouwqUxLBepthWb10vrWZY6UOAeyKCCtDV625mm9gmUC4Wc3VLJMMIE1BsA2FW9JraVlQB7n3c9oMKhCLEvIM1zBPZ25/umNQ1tVEC2G+fFCC8g398O2hNQuQlVu752DBfA+q0ptnqO5JFmeuIuo9DY7KjY71UxdJV4EntifPWorW++R/dC4t7V3DlIB5cHx2bc7eb3yvX//QNFp+bHDT/+Aw==);lineShape=1;strokeColor=default;" vertex="1" parent="1">
          <mxGeometry x="336.0679120143509" y="556.2753979077381" width="4.672539772115215" height="4.665236216357243" as="geometry" />
        </mxCell>
        <mxCell id="fGU3WEagON-DqYOOjsWN-124" value="" style="shape=stencil(rVbLbhsxDPyavQ4kUc9zmv5HgDj1oq4dOG6b/H25XaxrruxpDfS2ljnScDikNMjD2/bpdTME93Y6Hr5ufo7Pp+0gn4YQxv12cxxP+jXI4yAPL4fj5svx8H3/PP9+fZoip69vhx/TDu8zzkeUNKGC+5hXBCX8Xvg8x+/G/UW8JJRi4gOKvx2fErKYeI8cb8dXQbP7OzhH4hu8W/HJhH8T5Gb5OARyQCsI2R7g0UgGrSFGq2heNLgK8O6c4oJIXNRWUasB5IrEABnBG0ANkEIAAcHaQlcqq1tBDBagJEnWSiBYmVQ4lnTRQlgntQSpBBDQLKBmCCl1VgLWG0UQCSVV3dsTUoUjlHpAVDPdRSlkJFK4KWkrqz87/qasFhBpA/V10/4h+0/GWA8Af5fzCny+x9q+0AnTN494JFKDK/0ZC4S1WzcCskCISP2QKWokppIW1Sahg7ASSvq3s0bSMxmlfhBf6PCfEP3loMURUuz+9pmUI1n019vkF9KhXt250ikuY+R6/yxj8Rzv0MgBcen3c+EitWtAsnO1ZJqxQ7VOypnOsP7uSUiEf98LcZn8/8ZHBInw7/KdHiSEf6enT9RCWq+VIeAI/d4PCY5sf+976u/x+vHn8fYy7nbz2+/y//VjT5fmh6I8/gI=);lineShape=1;strokeColor=default;" vertex="1" parent="1">
          <mxGeometry x="337.7828280944209" y="499.4046926819278" width="13.677559860161637" height="4.390687878331846" as="geometry" />
        </mxCell>
        <mxCell id="fGU3WEagON-DqYOOjsWN-125" value="" style="shape=stencil(7VnLUlsxDP2abDV+SH6sKf0PZgglUwoM0NffV27qcC3nniSrbtiFoOPI0tHTm3j1en/zvN0E9/r28vR1+3N3+3a/iZ82Iewe77cvuzf9tInXm3h19/Sy/fLy9P3xdv/3802TbJ++Pf1oJ/za45hYGii43/svvKfo/n7zeS//sHsc5GMY5DP5iMSDG8TlhHjkQTxSqUg8j8oEyuB0oWjuShlcNZHPg7ijUtbF1RBsxJEhCwVvxB0Qr/2w88S9/rhVHmnTvG61R5f1gXy6wJYqn+sFrvKRfLmACSofR3Nioql8Gu/rmXyAgDwaVDUKGJBGtkU1UYIAN6rErht5zaYy2pRLZ/iak+sIkNTdvgYIIyCpGTDA0CIr75DfvI2aXEiQ4zzxGAhFyHkAqMTeAjy4Q0sTI/VKIgdiIU5mLZoLwKWjXnG8dCnkUFqUHuwLQAbkE9/POwBqZ9dxQCYuFhAA+RL3+FoAGKikRCjJAgSolHP36wIQgZXUrylZK/3LgscBhdJ4h3z45jjgoMAB4CmhJF+pjllDA6gAlarrVl+EqGCAUUkctJICvMkagRxwnAKMH6JQBY5rZh25pLURFRONLxnv4CusVs1No1l97rnwOCB2Ny0ADFRK2dYTBcB4cCQTAOUlYdte+ASpwcV2Ow0A/MCal8qkEvB01GqQpksDlbQrqZNZUUz7Ql7sHWBRnKkhVFDZFRtAWthRPOi/2fghECOVtKc1d3C9Jq0B0ug4nJb0CqY8JEhutVEdzxfcmRQbDGoCYCFtBTkaeRSd2trZDEMFnR8tsaVnzePy3Gn/PoOgJKzH8SivhQc4uMkbCnlYFlQhGwYRaxQ7hxesRtlFTWrGLnU6g1ZPfSZTKKMWQ0mR2f4CyvLtvAkQUBiIrbYaGCjhtbjJ1qwetXo8xb72QShy2DK7YiOJnUoybCWbkyyzE45MN8ozJJ6WyWLlYb72NhMxCaiCF8tP9UAbV0DrueAIzNVzRROoz1wyBVabuSYLHHfmoi8w7ltXYfVBA1trW0xzB/lWgg1ilUft6dQAq/4gXipb/qvDgT1rsqNUq97gwrXYsbx5GEWwc3Y0OtGdVo0ZU/0CHO8UIGO91w6bkZWq3alpD4+WF3UaK3S6SiDRqZnMxJkDJJ4C2IyoSl0EyNOImrCrxU46NfSyuzYaFZN7C5yaS5jKeO07tLUB0kRbcyUCONtYvJNlbQh2dQKAO+iYbRJerbDXUaplUzQd3vzxtKFtOqH1RbY/0cwEsnA8ZiaPmhG2u86K5+x52aZ8RF1/sjGtmSeh9WVfVi7IihKls3mvrYQAuaekpBMrGjdVfryvUhF1Os7utFKggBqRaatwYmlmg5nV/kA+2D4haoYCjIh2iRc9nkwpjxn1xPL1sGQ5c7v78UyxmnU/nin+7zOFGaXxc1t7Q5gmIGjQQNXUl9D3IWsAmYYytKD08xaK8Y7I22DUpjGC4FUShbnLRDvTPiQtJldUv0rPrWfKZwrzzgrok6ZdI76wTDsxbFHuufhMlx2GvDM5cfkb8il5/fD+YH23e3jYv3cv/28fuPWr/eN4vP4D);lineShape=1;strokeColor=default;" vertex="1" parent="1">
          <mxGeometry x="333.8145931011245" y="607.812157800643" width="50.08696634223088" height="44.13489697842988" as="geometry" />
        </mxCell>
        <mxCell id="fGU3WEagON-DqYOOjsWN-126" value="" style="shape=stencil(lVdJcttADHwNr6gZYNaz4/zDVZYjVRTJJctZfh8wDBkBIjvlG0UBg6W7geEgD2/7p9fdwOHtejl/3f04PF/3g3wamA+n/e5yuOrTII+DPLycL7svl/P76Xn6/fo0Wo5P387fxxN+Tn6JqoxOHH5NL7hT4z9vPk/2x8Ppxj4ypWwcYqeQgYOeZyPESCltO3D1ETI1EEAy1W4DzAes2qdMpRn7QCFs2+dCJTp7AfmXSuLta9u2r4WyzyeVbfueZoBm+0QxAvtCLRj7Nhe0bt8o2fOjZliBQ6fsOFQpAocYlo7PHtKJQY80hMM4RyqoSY26LaIw9Q4clHUWhcoUAS260shGqI2CAAehnCwOgSIgao9eCBqBgUPrM043NWSQUmszc5YuyUzGdYdKbIHLDMXQCnVbgyKNcNAIYpFWMqGBpDX8VctC14r1oOSzDsoVRG+m4PXGyF7laOUgM7W29BktaoUqIl6l7gYqBk3Fw7aAMSPUoe7FozM2IrWpg6V2qpSR2ha5LzzqOKXmQSidBHfVRdA5i9aCwsZObbq5UA3scVYHQQNAHdJHHOrd5qmKNKhhXD3VOyDu6W6rrugEJ0YqFKpvK4MuiW4fq7ZxiAF6qxrdems66kGEmClYpFXhEbV1Tnix7zAjvX5Y2G7213qTKNkhqeytICHxA0l3C0ItUrsrOIERGfwMbjKDsmHvLjCKcQT53G1z5WEDYlZ721AVP8N8khWaLv8Azo9eZ2lZveuUuxvYqiOAr5C4ncZUkGg+eMf+v70+/LvQvxyOx+l74PZ//wGgr6aPB3n8DQ==);lineShape=1;strokeColor=default;" vertex="1" parent="1">
          <mxGeometry x="254.55110848505774" y="545.8608498062501" width="34.096994495337185" height="5.796195301499438" as="geometry" />
        </mxCell>
        <mxCell id="fGU3WEagON-DqYOOjsWN-129" value="" style="shape=stencil(rVfZbhsxDPyafSUkUudzmv5HgDi1UdcOHPf6+3LhyrGo9WwD9M3WaiRyODw0ycPb9ul1M7F7O5+OXzc/d8/n7SSfJubdYbs57c76a5LHSR5ejqfNl9Px++H58v/1ad45//p2/DGf8OuCSyR+BrH7fVnwrq18vuzf7w43+z1T7QGVggP7pX2+XpAoVQAI5KUDcMEWRZq/3QCCo4IAiULoANFTQgA1oHSApDdkAKhUawfIjjjcB7BrBlwBmUoEACHXA0qkIPcBkij3LJVANd0HhEiR7Q1/VxYBUSgXCyhAGsmTH26oIA5ZnXbDDcCHwsTRAjK4oTKlwaQEIl2VRON0IgciXTO5XholN8EvAwrlXq2lQHnXagHVUQWB885ZXqu0nLp3ReidqLGt3HPCBEJ5CIjX1NR8BRSqOBBs6lKlgnj1VNgCUEKUahNCAQJCrYGNwfqAtDFLx9CayANaVZxiWJJWef4V4KG+1SRvUk5jXz7itK4kEIeRVr1TVgLX+7CW1IM05rKBcnQQn5qUQSUb5a05yggwJpAjD2hdylGmADrEQhkIlBFgKDTKA6quYynTIyLidSiWaiTSxliOb3j4T4i5RwRrFKoDmRe8WOlzTiwAyUk7aawDAChce7XJ0hkA5CTaytPgAxpQMvHgAyrgOtGwYUn1hWam0WmcdFpoTJKWNtcts2oH1+JxFCiYkYxhUwy2BiShBM5ne368znTLBLV0v465HrZ1R7HXhE7qHpw/FBidk7E90di/QqeZDnFa6lQf+/28NtRL7unB56c2X7+bj7qO7jdZn1q5vLc/9xlW4Jin++38AtWs/EhftvThFlF+BftM8h528vmlZwDcCv4ywNumpgBBANfGoVsAaFGFUrAuoKEwW03ofgb7P/oYXt+vP95f3i+7/f7ycL/9bl/qunR55cvjHw==);lineShape=1;strokeColor=default;" vertex="1" parent="1">
          <mxGeometry x="252.66190942434332" y="550.3670106244747" width="35.97262638575262" height="37.09064569824591" as="geometry" />
        </mxCell>
        <mxCell id="fGU3WEagON-DqYOOjsWN-130" value="" style="shape=stencil(lVfLctswDPwaXTEkwec5Tf8jM3FqT1074zh9/H2hqlQESNpOb7KMFcAFsAAHfng7Pr0ehuDe7rfr18OP0/P9OPCnIYTT5Xi4ne7yNPDjwA8v19vhy+36fnmefr8+jZbj07fr9/ELPydcqFTTiAru1/SmJYrtz5vPE+B8uiwBgXJUgJopu32AT1ScApQGPTTyTdt7qnXfPpJjZZ8j+bhv7ygVZZ8ycUD2TscfKwVgL9Eae0fV79sXyjoeyYkD9t5R0Af2hSo4cOufm+09dMDc4+2AmYJNe+GvGAcUQDySf5MxhgkeCyxrRimhAmLyOgOJWgH2koGqK44qsm/UTAJc97gHyDogHyiCDDRhVDeZj71qtwGesglJijoDTiPVYIsogSSUQs4AKnlwhixZTtZDBWnLfnXoTA3UUUpWu0RrGLCUgm1lz8TIg1slTloH0JrkDFq8KhUUkYitPsLcS3scGXFM5BCnlaLOWoT2JXcCF60J4pEyCvb7AVSR1KlnE/9fAvYaIZrh0QnY67SopaIRM9LSlbpLhjMS00JNe/BYvUSN0qpKK5gftXT1XDROACSJnhr98niCyEA1I2cEIMX2Wx4AgF3nZKF4SFOlEYoJSSoV0Jq4F9o8NmXsozUh2zNwwnuFt3mQwe9B4gTgdWmkCAUsSuWY1SVAWj8CmAGNAsi0sFR1SNLhCZwhOzv7pcUZKVIh1g00jl8kScXug01mG9DULFNgtaI2FFLqg2kGiGqA4hPWgy6+JisekvlK2XhoXdi2AbHPmQWgoFpqq53K4S0sSq1V66IB2ZC1NLIFoCWD5z15QROa6ByoOZsI1BAiG2zkO/eBun0b+e/ry78B8vBxW3o5nc/TZWv5v71dyavpZsaPvwE=);lineShape=1;strokeColor=default;" vertex="1" parent="1">
          <mxGeometry x="285.7811517033556" y="550.1886234140718" width="10.85509387826437" height="37.53540122179561" as="geometry" />
        </mxCell>
        <mxCell id="fGU3WEagON-DqYOOjsWN-131" value="" style="shape=stencil(lVjLbttADPwaX4nlvnlO0/8IEKc26saB477+vlSNlU3KmiA3WeasuOQMyd1NenjfPb1tNzG8n0/H79vf++fzbpO+bGLcv+62p/1ZnzbpcZMeXo6n7bfT8efr8+X329NkOT39OP6aVvhzwXGikCdUDH8vbyRS6P/ffL0ADvvXWwBTKB6QZR3QicXaZ8q8bl+oJWtfqYP1E5Vm7TvFCjZA0rz/ta3bZ6ps7ZkS8L9TDca+C3GGAc02oL2SBAAolGxEe6IMADFQtIDWqQGXYqVi99DiyMr9HCSq0QBqoYyCyhQt7UqjBrJcArF1KXcYpTJHfQaEsau7gNopVANIkQQooRUSmziNW4uAGezDGiMVBChenCxUQB6UOd1+gdtg132AULKJ40gduHQl/ywHKkBtotS0Ua0UQBakDWYOeyUvINIk9uTsA1Cn9OX6AUhBhGJ09gn5I75cBBIUH6HebQKgNDmEEb+ZRFQBJfQDjqVaMAEj1L5Z+zzKzZp9tv4oaXHCnD8FakDts7evQJVKIMl+fZTgNrrX1Z5RPNv4+xofVOm0ewm7+Ffkj0rY+o9L77S+jQ9jATeKrkRQwPstNj6BMs6XK6NhvFizd/074AIhy/Uj5n/2/iOBTYJkF5+MBSxWwJHSB3q0/iSKWI/d8w3yc+4QV/uOCxbb/RY4THzavvimxx8QQuPhKmLCFW4xS3CFE13vo0XMKWM4MmofFss5TRoakvvMgZvRAAFa9VlO2mfQtCK+DaQ6hHofEPwcnjGRyhyTOdERfiHHRatnmLiUSeymKx5vYhsngXku1WoMxDPVQvsFHZULOt3oerbdK1k6Ok0kP39MEw8YQHiRB63gCNB8VK8dceX85Ib9qQKioC7UE3AFXgwg6hDqOFpv3QYYbjgRuwNagCkoQ1k3By7UobpvaDo1o4lCM1YdoMAN6wi9BKCZS0nkZooJACqYAkr1gIb2kPxUpJtmxOvs1a+Ahk6l2df53ijhL1R37u2jtawCxAPgQTn7U6kyA2Y6L7QWsJizH6Zkvh5Zy0NfiAGdnxSQmwcIcunTFzofA/Then/0sj8cLtdPt//7+yZ9dbmrSo//AA==);lineShape=1;strokeColor=default;" vertex="1" parent="1">
          <mxGeometry x="376.2485820134841" y="449.97983973371106" width="120.87263299274446" height="67.13065986366382" as="geometry" />
        </mxCell>
        <mxCell id="fGU3WEagON-DqYOOjsWN-132" value="" style="shape=stencil(lVdJchsxDHyNriiSALez4/zDVZYjVRTJJSvb74PJhMoQM2yXbyMKTRJLN8AdP7wdnl73u+DebtfL1/3P4/PtsONPuxCO58P+erzp144fd/zwcrnuv1wv38/P8+/Xp8ly+vp2+THt8GvGCWU3gYL7PS8wRfm78Hk2Px3PC3OfyHFnH8j5sX0oJLWzd1Tc2F4CSTH2HtwnFvLB2vPYPjMFsfZlbF+ijY8jB+5fE5Vq4on29+6+XwNUSsCBKlR7h9+JqHrgTYaZaoUhyn0KpFACPqRApa8JXeEEksZUeh9yoApOkNxcbICC08aVau4BhRiEVeu0mjQUiiCsIRMbQG2luw2IJN4C/l1yG8AkvAIgHzzFbAEcAcBZMqvTDNjsNUqpBySqGGDoXGOL2wiQen5WbivbgLoKayCPFMlRNk4rgUC1qsJJtAAHrqSayr0GlNrO3AaklqYFoKLElSZyiyshiqqoRAPw0Gl2q7AyrCW+X2CRaaSUCmBzQoKZVh/YlEYhB4RMKVpWfAiI09rcogXA0hByvdMLPR8Vk0/2iIQArsnQwuuMKKc+mhNyy+WIclY2IhWQ6glgMie4ydWWpwVHI8qcs11ayzWg2vgogH3rgXfK+aZt2y1IT+ijlFXJgHyLVnN/QtLEAadjpNBX3zTcAECKlPoricBM52R9mHQBTT/SSu1e36m17uG41AMKHN8yr5SvMWo07nEx9gL2l9W4V9u8ONKYYhx2sJv4TLlnm/dw9kkk/ejjQzty2+OVwqg9KmzK2don1A4pJmuPIuRtI1F/BejXqttqQAUUtdLMaEvrvgNzMz3jMc/Z10Juxw3MY1+dCVazt/SKkL/B8h2zl21HZqjSH3zYvWuuH//fkC/H02l+gi7/t29OXZrfq/z4Bw==);lineShape=1;strokeColor=default;" vertex="1" parent="1">
          <mxGeometry x="476.3935416507245" y="439.2486632636742" width="32.468499905986164" height="38.554473516485814" as="geometry" />
        </mxCell>
        <mxCell id="fGU3WEagON-DqYOOjsWN-133" value="" style="shape=stencil(lVhJcttADHyNrqjBYBbM2XH+4SrLkSqK5ZLlLL8PGIUKgYjt8o2i0BwsDaDJjdy97h5etpucXs+n49ftj/3jebeRT5uc98+77Wl/tquN3G/k7ul42n45Hd+eHy+/Xx4my+nq2/H79ISfF1yi0iZQTr8uNzpTqn/ufL7YH/bPC3smHc6+Fqpj3b4Ss7MvMp94036QVmcvSl2BP42SD0AK9b4OyEIqHpBIAUAycXeArMTApZKoeZdyx4BB4pOUG3SpdsrqAZUqALRC2ac1Z1i2Nmj4oLlTA7zoRoPiAQxj6Eo5OUCbn3DTXplKiJkyIJIaDXxSE6UE7HX+e2EPMjQ4+s/E4PmjzH115R0VBvaNxCe0U0H+KA3POraiI4CxzifUSpxQaw7q2VeAqQJOGGD4VrMYMuAEpxSLIEINsGI6wvskdgdH3f0JpUJiT2nyea3mpOBC+KhrpgaiNkDxvVaFBFHJqOqDrtZrKEvWux5QFE/hThIAQhW5ZBMusPsduhogjGG8eAyQw1QtpDiG6k/gAYekAUbo6EodV1p80CzUUR2UlCNA0RAYcW6bSwO5NGKlLWjF/aBhu1U4V8e1vxaFg5UecTAZNf427WqL+hOMfAr2pwHCajB6d9zTyQOsRROqg8a0Ti2KYjCJ0OIJcFZ+GFCjEitlHm23ATLPiIW0gpPPFlqYrfgE7VE0mHZqoHDTjvZ1eIdLJgJaiSegLW0qo6QYA0qr6Zge5tIgRiekee0vFgpSe6bFgtqzhSKg40ztRYDMdFzVk4GtdX7EqmINqr4Rg0FmWc9hx3U4jE3shD3dGMo90/VRHpomBuRj28qefN3IB0ZljS3dr4LodsyxCmoCDjyf54TM9qboFNoHf2wkoBcZjstnXN+dVuxDfhZq6yYgxTE8bSNAuxTfAKYNDBxKkaU20lAvpygxbEANUDCLzvtjEh8p7v+0p40npBdSVGGa4HhM8VW49/kJK/ZB8HSsLj76Kv++vV38+27wtD8cLp8dlv/H7wx26/KNQu5/Aw==);lineShape=1;strokeColor=default;" vertex="1" parent="1">
          <mxGeometry x="383.91207434420994" y="562.6424143927302" width="128.00029156821302" height="9.241766465863066" as="geometry" />
        </mxCell>
        <mxCell id="fGU3WEagON-DqYOOjsWN-134" value="" style="shape=stencil(rVfZbhsxDPwavxISqfM5Tf8jQJzGaBoHTtLj70vV0HbJtact0Lf1rsa8hkNqJzevj3cv+x2H17fT8fP+2+H+7XEnH3bMh+fH/enwpk87ud3JzcPxtP90Or4/359/v9yNk+Ppy/Hr+IfvZ1yMFOpAcfhxfsNCQX69+XgGPB2eV4BCoZnzsVJv188HCsGeD8TgfKTxae0PcQHHhWIx5xeDF89zpWr9V/fr9fPSqLh4E0VgIGsAYgMI1AGgJOo2Am4k6TqgVsrWJckU+nVA05iTAaRADbjUM0VbhJQpM6hC2JRZ89AiMMEUswEUDQKYaDw/L4VbqHs5r42atTASByzkTMUWogklUIiUJnUWAK6cVGqWGyMNIEta2GjT2gtl0A4i1LsFNGyBSWzQvcOGk0DSPaAB9g02Bw/oGQAK8cZCApLEyTeEBi2AGipxkn1aUY+qCFVLvtEiKAYFuLSqTRSDUs3FEKkAtmrQTsh6oIjqoMyxKtC00ijo5tOq9K4gaKVG2fQDooaSrwTvUgEuiWpv9UEjmdEG4ug7TpBLeWZ9AahNMK8UIDatSo2OLCRKzkKlAqihWeqOrY06AmxmujZQBbrEfTuk/zBGy/RgZaKgltsqWZsEvtYQpfs0JdQQ7PVeC4HoqgBHV+3RjtIkG/bx3D7+D0ArV2xadexVtJ6oMloLFTd1DnO7WwAJDrnCXu91sKIBof8n1qUSKQGArifF9mgWqqCpW/QdlDpcgHRT6JZ8SWbeLmepTyldVqxKjFcBp8Yqhg1X2k1FFfQOgo7LDFx6tMNFus15s1q8EbtjmUq6AiSkAdGPrJjnsnyt4ZxUDptINDYtHRseWew3sogHypjTNuixraMpypv7EsMyaJac8I1RjwvtglZmMHBJcyLNA9DYHVl3LuUpVJcBeY7ANQDFIF7HxrqCADzbawUICPCv99a/AOjD72vyw+Hp6XzLXn/312p9db6Sy+1P);lineShape=1;strokeColor=default;" vertex="1" parent="1">
          <mxGeometry x="485.1607886382553" y="543.5106327788435" width="30.960713240143832" height="35.59463449533496" as="geometry" />
        </mxCell>
        <mxCell id="fGU3WEagON-DqYOOjsWN-135" value="" style="shape=stencil(lVjZUhsxEPwav07pPp5J8h9UYYIrBFNArr9PbxyZnZG3gTdbq9ZoZnou7eLV8931434X3PPL0/Hb/tfh5uVuFz/tQjg83O2fDi/4tYufd/Hq9vi0//p0/PFwc/r/eL3sXH59P/5cTvh9wgUJeQEF9+e04MS3fwtfTtvvDw+r7Vl8V9uB79vbm0R9epJMTvdeelP7qyz/NvdnaUXt75Ir2Y/PSe2HxEwEQL2iBfgoiUiYDYQ7pkgA1ZrIY4WYFCo2o0OXSnSIQboGQKtEJMQiSV8JWjErJWd1gOO7J4AovSoALukZoIrTEmKSSsya+vh8BlTxmRA7WMdFHMEASZLT3A7UcblI1VxKeRj6MqAP5pwBTRohX5mCOZ9XLgOyBC0hZymJAJo4bSVc0hGlq7NWwiUpADfWViqJ0rtmS77SxTMA4kuTr3rqh9qlaAk1iSNsbUhj2koVIcUAOM/kvSaFAcAlrQNkMqUb3KSTQItj5SKge2leAzLNGj1J0To0kIVcqTepmhqQmYkfepcYNAARR8oJACbienxLgqk/0KqTNLMAtB96GezavJI2a680kQEQtONgt/9Fb8usxUjoNKZxgaaV9s6JcxThoxXRGDdA/2QBkWmd7Z2gFrUrKpSzdmUBAUA03MiDj1sAUxXBjcCvVI0OYdBry0rReA6JhNG1THT1ErnjTFUEwDNAG93OWgJjX5+ogXzPA6IYQBxHbIZctH5I5EorNq9cTekKNptEU7ldUakNoNGOaYnhKSBYmwjAHHI0M9WRGtcAzj7T6gKQmas/DAhTOs6jNd0qWtZK4AYDVNvPdEcTPgqvGSBQtFib2MK4wKosUgDmKSMhUMehPTFlEUewvnJugJYjWAPkbU+GpiuTbgNdn0nfpVK2ljKy+6qJYzFa4pjbzgBPPV2cTUy5DnZdbqarHf3QwLMShM9NWyk72n2j1zYSMLVUNkufubkaCFhvnOZxOlCz4jzTxEVeqHFeNVNQHfy9PCuiPdFWwmDG4iHmCQBPE7NGb630+qpweUBu40liPb4SP4Q4htUzwNPOFZ+LJp/HvMtKULOtgC808/k8LrB6RnBEae+sDj5QCXV6p3CDvpeZYWtoow8/fhT9czzTou5GwjrHGo0cZ8ttpp2Ys7om2hC76a1BOmHD1F1EGjHT6WFk4/fd3Y8x632W8ZQ2k905CSav8sdCP5LT63Y2Vnhbi/n2D75cvrkdP14fSW8P9/enN9b1d/uoiqXTg2z8/Bc=);lineShape=1;strokeColor=default;" vertex="1" parent="1">
          <mxGeometry x="389.1152965066715" y="630.9291166761618" width="113.55704991878906" height="59.23279634236587" as="geometry" />
        </mxCell>
        <mxCell id="fGU3WEagON-DqYOOjsWN-136" value="" style="shape=stencil(lVfLctswDPwaXzEgSILkOU3/IzNxak/dOOO4r78vXA9VEZI205ssLygAiwXAXXx4Pzy97XfC79fL+ev+5/H5etjFTzuR4+thfzle7WkXH3fx4eV82X+5nL+/Pt9/vz3dkLenb+cftxN+3e0kUUw3K+Hf9zdMUf+++HzHn46vM3wMVOOAF4p5G5/suDbgSz9gHa/URn9CJpZtgxwp8+hQpNa2DZSp5sEgmgEIQSsFGQySUE3bBsU81sEgM5WwbVAD8ehS1u7kukGjWAcDzVR426AplTGtJVCr2waBmXjMq3mZwCdqpTZGbV4qKKVSfNQtkIIvaPB5bZEE1MaNp5G5lqgBIkRJnEuWuAKC9rXUGlUQs1JOHo9oMHWyx2dQ3JMYJ3yFdcE9HRO+UALyZC+FlqnB87l4AgTk03Ti/BcqgGGh4PzHRTq1hgnPlJD2SZwIMF+VsvjzGeQzMOnCIURwEErVR6wgQyH2BM5SivpjmBiacZZRq0jEzqUpbVsuBafj0tOwbmAhOporLLtJJDPZIBkUiuP5s/a3PnX6TJp/ANS19AkzwzOou0BRfIYqyBAv+oR+oGPX3I3jChqjqcT1Leu8AB8WBNjeAHXp42Wo+9xVO9cZqNG88B/jZaGaajUCCE6LzlgTXHSyETqqxuZrAQb2t7hNSmEvsjXEDWSb+RF8wRadNipfpedt3cCEPC6DOcP5amsNjzEkSwNKa/WFHWvP23ohNd/hrRkgpm35S2PQVuwVjZxMOgZt7amBmR/qYguBWghlIWbcTtU3owpX+NtCPUZcYFlYf3cbtvb+vYV3V4rUd/otvDqOofbNfxnrWvB8Ui+cgEds8QQz5qv5JYG7g+sFtFi68Kyx8FQ9HvD1v1e6j/H28O/++HI8ne7Xz/n//r5pr+531fj4Bw==);lineShape=1;strokeColor=default;" vertex="1" parent="1">
          <mxGeometry x="482.70061328252973" y="661.2275024636137" width="27.335110374521037" height="38.81871796848418" as="geometry" />
        </mxCell>
        <mxCell id="fGU3WEagON-DqYOOjsWN-141" value="" style="shape=stencil(7VnbTtxADP2avFrjudnzTOl/ILGUVSmLFnr7+zpdTZpxdk+F1Ici8bYEO+PL8bE9mdLV8/3N026K4fnlePi8+76/fbmf0ocpxv3j/e64f7FfU7qe0tXd4bj7dDx8fbw9/f10M0vOv74cvs1v+HHSU6UYZq0Yfp6eCEX9/eDjSf5h/7iSb0xZB/lIrQL5SJoHeXtBAvKJ6vj+QFWAfKaanTwj+wvV6uRDAPJ1aw8j+4VqcfIF2a9U2MUnNiDfKLKLf8xQXkb5RAm/v43+LgE+K89hiV9XKNQKNkg84CKUT6MDih1QnwB7AQKEAXS0nyusAM2kLgOZAvBYEpU0piCTgJhWJhkVcoVJzs0XQREqQCEp6RikKpSAD8lQ7Ggi9ydnFQxmMp4gjRQUAlthujxjk5iJR5OMOwJKHLU2ygtlYJESOyApLGUhHpMwQxcgtWzswREy0Izyq9o7nzSqwR8ggKsj5Y1BDOTZ49oCFEHGQj99lYAAHA4d9It8IQH+bpjImkPE8i7BsZP9Bfk0UqM1Q0RdwVOpGrmiXtM7yyIfe3O4VDJlDJAI5F5DRI6jQiIGEDWMhrEoxUxCEKq9W68UKvDBqiwmb1ICDdai5FAnuEMZdWWnUCmjsgl+ZBGljE9wPVYDpl9D3lgJlmlERTN3OQXrOeAEIyM3VmiB5GiZVvUKGUEj+8SZQkSZjr3prXxAo87ML5soKTrBEhd9HhrCkqVpdFqWxnjxhJEiDUuCwsqdsVZohSVq47QDX4JYsjzkMUpWcYglrUQ5eoUCaMywJJsSDUih+U5oTjOuB3Z5KDCsadNKjPkEzy8OGvM4ghWSgzeTIuazZj8ynyY4LlhNB4fW3EfRf6Sw5aUGlylrKL7jpr7uvY9U7yPV9OZGqujzZUsFg/dLnwxWVY94hXPH14q5EEK3ERLunfcSXct2VQMu2HLpOkgNcEDKpdfssj2GHrbzVSYdw8tC2+A0Um0nH2FtXqEuaOTsBlXG04ja+9ygShXdErxfS/1/11IoPm/iWgo58NprKfErAhvikEHJU5dxE1pzZmYeLbIaCyjHvOmWBQ6OLfidYr7kQVXceo7WJ6B5ovWlZqWA6kzVp82ihMZrXXhkUUiwo5mCa7G8BPqSgkMqMwzrzHXO6QBvyuae57os3NRmn10XJEZZeOU3hL/L248/Hyzu9g8Pp+8d6//7Dxz26PRxJF3/Ag==);lineShape=1;strokeColor=default;" vertex="1" parent="1">
          <mxGeometry x="533.5079649710292" y="389.1076397577708" width="43.05441879976388" height="34.058550940440455" as="geometry" />
        </mxCell>
        <mxCell id="fGU3WEagON-DqYOOjsWN-142" value="" style="shape=stencil(lVjLbhsxDPwaXwlR1IM6p+l/BIjTGE3jwEn6+Pty62qzouwperN3NSuRHA5J7eTm9fHuZb+L4fXtdPy6/3G4f3vcyaddjIfnx/3p8Ga/dnK7k5uH42n/5XR8f74//3+5W1Yuv74dvy9f+HnGSaSWF1QMv/4+IYl/Hnw+r386PG/WR6XchvUcKQUAyFRkAMRAEe2QKZYRYJ9gCKjjkcR2QEcqfgdJFBoEOBukUksQkOoASEwNeyk7QKGgAJBIdADkQKECQKQ8BjoLtQIAgTiNgNb3vAhgez3uUIQqssF2GG0olRTZIBTHI1UmxXEo4w61UkDkqxR5AChjLyklB7DYAy4ZN9PopcYkAMCVOHgAMtpSmqcjVeDWlDpzVoBQBkbn6rmkRr58HVCjT9Fa+pOLAK09g1eAcQmIgLb+egNAQtZMtqIHRGBDy93EDSCDI7VK4o6UYE43paYeoAjQ+usVkCE1DNDYx0FBpA0QpgRSgUanUVurUsFujaO21tafXAtciR6QQaR1Nrp1eb5GPqkewIh8ZoN6oxNwq+WXZu/WjPJhVj6TNlBQlgx2CWQlBnBJUy+yG/KhwC065yItsMapdm5uAAklEPe4blMU0TtdUA2kra1MXBKcD9pTfuMlFDhLIF+BMlQNDialzogC+W1bpJlMCKBe7xe6gsiZm8KUcqjZWABTUiOARpKRG/YEuam0Tv8VkKEwWc1yXjJdQM1Gqr1NXeuukQl4yZpIHRPCxLCgdoa9bGyCf4UcvmNaYgkA1cuG2RCRW0nEOymD72fPVYsCbDW8yFiYAzhPouo0pkIljlPuRBjk4DOhKGzsp9ws6wkvB6z3IOt6iyAQVVPQ8Tw5w+/bGDLGK7U+21xOTK/ZKcNCZYSrbgOGVYGZ0si4ZVRCOzBVB0jEIJFt3nTasox7aC6xfngaKBPQRwO0EWCjDUpknjLfrCqARtbTl7EfjrAjYfV5byMA0onW59mP9YwG3EAyGhB62bqmXK6lClAajdeluvVwWM2+8mNdtDyYzs9o/dTWht7yXRva3K1HgJOtcH/94X8BsmUjm6tmDGVIxOvQ2hRf+/5/3fL8e739+LhSejg8PZ1vpLbv/RWUPTpfX8ntbw==);lineShape=1;strokeColor=default;" vertex="1" parent="1">
          <mxGeometry x="532.5277114371056" y="425.2281507064092" width="25.562036852591064" height="68.08751740982711" as="geometry" />
        </mxCell>
        <mxCell id="fGU3WEagON-DqYOOjsWN-143" value="" style="shape=stencil(7VnLbhsxDPwaXwm9JZ7T9j8CxGmMpnHgpK+/L7eG1qvZ9QS59ZCbH0OtRA7JoXYXb14ebp/3u+BeXk/Hb/tfh7vXh138tAvh8PSwPx1e7dMuft7Fm/vjaf/1dPzxdHf+/nw7IadP348/pxV+n+2aSnWTVXB/zr+o+Prvhy9n/OPhaYkvUtKAL6KF4L3ouH6S6RvBhzzgo5RI8E503E8QVY6vgI9sfS+xDHgvha0fxFXAe3beiHjXHbyNN/cp4EMj+CwF13csXlV8RLwj+Ca5Ad4zvIri+pGcV819HvCVxEtDP97F/4Hho+jItySNxEtzf/wlXxLbf5U07t9HCZ4YNKlgUPoWtw1U3MiINyg9GYxHCFkyM2iYw3ZoRgozKJDElpWEpWbgx6jFKo55qUocvZRcJ9a2QREXRoMkhW3J/gaDypkRkKk5SGFncL2yzQZFMqu92kvnXHu9JJZs5qUxcKVIYtUrI/mqk8bKo5WjMXA18XoderrMBo03BCdpLDBWkhPJh6oSR/LZqRhbq6XoGAfzWyNPKNqZM9cA1/22beA7+2eDmSybBtm8PsbB6lQmgbN0CWCQaZ23MufHqmEZEkgh80kqnKF2R2/TW+pIVkvyzAItCnjtRWE7bEhVwxcWNUweVVoxUk/eJZ6FAKuq4Vm98NiYDZ/IfhzWVPNnI/5x2BamIksKnuHHxJxaF/Gn69FcEKgSvGVtQTyLb1jxLdPOn3rTW+AZ3zI2/glPEsC8UVf7YbVUasLzBpovyLdC4+td75CLgLH2YXSEA7SuJa/gQ0Q8lfriwaEqmdTdsnKQ0gNnXN87rk1jj+cygwk+rDJGu7i9kgG6Wp/VXLeqQK2Lw2sZCaNZpbOHw25vDFJCiPfifeijxqIreZIylvMNnuCpDowrNW6dNRIXpbJq9rzKmcQCwWITLRt4S8KB0UY2SuuKeWmKpDADxZGlFqqhTJMpPCHSJ9TQ/551oHbubhskFF0l9/K3bTDrytnAUaU5qT5Qy5m2v7bKnuwpNdaTtZGFNRDTsglGwdgdfU0tQwtMs1i9dnkCFSYWLq8LqrT4xvVGxvF6GtX4GepIvmkYZFU+IzX8rPSuubWNZ/CZks8CB43KCk9iTwi4pcrj9nEn9XEn9T/fSQXkp+dXFQUHWNPCDK990rvc4bLJyfAV8ysQfy502cWASeWLLpt7rESOh27Dlel0pwbKjnYz01kNL/ka20/BCwET554Z5H5vszCI7ARplcKOuyhgXfc8KY3UGeV1n2ivXV9lmD8oi979puFNvH24vNa4Pzw+nt+KLP/H1yD20/kVSvz8Fw==);lineShape=1;strokeColor=default;" vertex="1" parent="1">
          <mxGeometry x="544.4417082882383" y="393.1075608956771" width="39.12159049214188" height="87.10204542949668" as="geometry" />
        </mxCell>
        <mxCell id="fGU3WEagON-DqYOOjsWN-144" value="" style="shape=stencil(fZbdcgIhDIWfZm8zQAg/17Z9j85U606tdqz9e/tmZ0c0uJ47xP0I5JwEBl59bp8/1kNwn6fj4W39M76ctgM/DCGM++36OJ50NPDjwKvN4bh+PR6+9i/z74/n6ctp9H74nlb4nbmSKZeJCu5vngmZ6jzzNAO7cX8FVKEsBuBKrgKg9oAE8gkCbLeUhEoEQKSUDZDLeWYRKIl8MEDRmHwfyBrBG6Amyu4+kDxxMoB3jhwgYu7TVAsVkFcWCs4CTBEoF4RctKeOxHIf8IXYpikHikAIf+MNUW94AGSSaoAoFIE3AlOyeWU+p2E5S9yfQZcQILVuQOwZdJNoS9Ls3wA5u2XZTIHECqeJ9kDpSaauRiNVcAY1QhdBzeLBli5WazpkSsBLV25uRaqWRyFawTQzRRIQYirJzq5atkBqLfouwqUxLBepthWb10vrWZY6UOAeyKCCtDV625mm9gmUC4Wc3VLJMMIE1BsA2FW9JraVlQB7n3c9oMKhCLEvIM1zBPZ25/umNQ1tVEC2G+fFCC8g398O2hNQuQlVu752DBfA+q0ptnqO5JFmeuIuo9DY7KjY71UxdJV4EntifPWorW++R/dC4t7V3DlIB5cHx2bc7eb3yvX//QNFp+bHDT/+Aw==);lineShape=1;strokeColor=default;" vertex="1" parent="1">
          <mxGeometry x="535.2679242213821" y="423.4753490796129" width="4.672539772115215" height="4.665236216357698" as="geometry" />
        </mxCell>
        <mxCell id="fGU3WEagON-DqYOOjsWN-145" value="" style="shape=stencil(7VjLbttADPwaX4ldcp/nNP2PAHFqo24cOO7r70tVlSpS1gQ99JabLHNELjkcUtrJ3evh4WW/4/B6vZw/778fH6+HnXzYMR+fD/vL8apXO7nfyd3T+bL/dDl/fX4cf788DJbD1Zfzt+EJP0ZcbJR4QHH4Od5JTJJ/3/k4Ak7H5yUgUukGIIVC3AZkCsnYD3eQAwo2oKj2dds+UBZrL5QKsv8T7WwfKYJ41D4Y+0YVPj5b80IpodOmZtNPwtvmTM2aM2Vgnqi43FAEsRcqNjWBJGybayLEmQdgHgO15Oy5AXs97Cp6QLSYKHeXHESEWDwTEjEqVfX2BXaKPi5nG3+jAhyIkNgDS6IIAClRtR5Sh72VMyXroShfESOEqiVcqVQB46om1XqoQgw8dD20ZUXtkKRdPdgyt0AV8KI3YpulJhSBovROxbV8IQaAGNYi0SeZ3HKRLEDzgFSuV9/5Qx4QIFN2gEaC8spUbSE0yIraX4/YPKADD5rFGjwAdXRT+ttZoGlALdqY2LZo1yZEgFkQZ0AkBoUbAK7SdZK1rZCcarRZF24DhJo9tPpEE0fT6mRDOwgC+sTmGaBSjrg0rwQLQAPSreRjG5L2aED9UP3oGUqJ2NpXTZ0popCUm5atrU2bwxagOi5F6ihLzc9yTUNEHnQ1cB4qVg3xE1eDFBRS8GdYSNVtbmgExbvIqEdvAsCEKH3acGYAUweALH6D1A7qICTdYJ1+1wxHisRpUZin3CyGW6O92Q7KCY7FuOJGUvlGywlPurVYsysgU56EcV5+GHbc+9oMCPS/12Z25u9rs2kVz7RACTB5ILqrLkN90Aok273c4ZG5+8VFFQPVTJTO1oPwNNW3FMi99erq/xbAvSsUaiBLGpITRWnUwRl4XiLmOgeoQJpWJ1kqxIipXL2wJ5kqcxuQ/ejQNyBGlZaJOQsA9BCp1JUHxG5dK1ZnQNry7x9c3gboxd/vO0/H02n8PLT8338P0lvjtyS5/wU=);lineShape=1;strokeColor=default;" vertex="1" parent="1">
          <mxGeometry x="514.8259356745953" y="468.62901618997284" width="28.03733920168588" height="24.984315717586924" as="geometry" />
        </mxCell>
        <mxCell id="fGU3WEagON-DqYOOjsWN-146" value="" style="shape=stencil(7VjLbttADPwaXwntcl88p+l/BIjTGE3jIElff99RjVW8VDxOip6K3myJlLjkzJDURi+ebq8etps4PT0/7j9vv++un283+mET4+7+dvu4e8avjV5u9OJm/7j99Lj/en99+P9wNVvOv77sv81P+HHwyyaTzV5x+nm4EiZp5feVjweHu939scMkUQeHKpZP26tJHF+QpJLna5KSnH0MxD72cLu9SlZqn+JgjwdEYq+i1dkHFk/28QdJ7LwmYRrskX87bZ9wvOTsUyL2Tao6+0DscxL1z5+m0/YFt7O3J/kveR1/JPYVx2vOPpP81NRvv+R/YvZVijr7Ss5bi4TRHhcqsY9Sx/OaNGJfqudLyBIaLUANI0CDNJLRvEIQQmKQTtWnVItEElKKEkfO4EplJDNJI4gA28gcmtgYUo5UtvAGHWGUK8VpAoxHnSgAEssS6jCeoaR+5XWHIHlUrtJ4HbQr4SK92h9xivtp1BagvZHCISdOvFqUzNBautguDlWUHLqGjpyFDpMYqTT4Y+OhrUhhhENax8JZ7RJ4inFpxJI1KYxxoWNzcQB+OeMc+ODA6pCAHN+VuQyDkU628YpK0hTBIPUOjHLoqxp9mhIJaW40wRdCiRQH81KMUisLKXToLA6ZChO0uo6Us0RDQvd3hDClYAKpW/QO7A2Yp1JdOTCOtg7/N4Y0d9z1ockb5pa7Tuv7ehwKR5QMDq7JzdBglFtNSQAfS2vRlQoYnSMz2vjKgREIXbGMpD7LUcza75IBDX7WPiM0mJUt+zQVkqZ52Gy+EJWMh+Coh2uhYvknDq6lWKQTX8DENGKjNZqlsEzYi0Ois0D0SaqNJmmBwRv79DJxHg8CTFn9PDZPGiSeFRcwMxqDtpTRHuQwEn/x5Mx83MPp3EpY6fND6Fw/midZ6wnJayTWMralAkNui0SQlcgFaubWgHnPY/029jVtkYtEFw1UITnZ5ovwP7A4+0XszOLsvlz8/cU5Ovv/i/ORffUqwRfnpj19L3gwEr8Fv0RCZgiF0en8otA7+okusJJpoypqy+J+9KlMCeURkdNdOBhJKTqjgwSUL7OQ0AncDBIp6NAZ3RAPB7avtVXvgAPrZWiNTrbgUEgd0BuTrt7AiLAiZljGydcdoIzBp9WIFGHBc1SGA13w3v0V9bwDfrx8tL3Z3d0dvvke3/cfeXHp8IFYL38B);lineShape=1;strokeColor=default;" vertex="1" parent="1">
          <mxGeometry x="514.4928840062994" y="394.58538123406674" width="9.755430627535588" height="78.22220069904552" as="geometry" />
        </mxCell>
        <mxCell id="fGU3WEagON-DqYOOjsWN-147" value="" style="shape=stencil(7VjLbhsxDPwaXwlJ1IvnNP2PAHFqo24cOE4ff19uF3JN7nrQHFv0tpbJFTmcobja8N3r7uFlu0nh9Xw6ft5+2z+edxv+sElp/7zbnvZnfdrw/Ybvno6n7afT8e35cf798jBZTk9fjl+nN3yf/WKkUievFH7MK6lSjr9WPs4Oh/3zlUMlZmMfO+Vw2z4SN2ufKaTb9oFStvaRWkb2IRh7IS7IvNp02/BfNU8UuzHP1AE4mbIDkwTk2ojF5kqZAZSBmrUPlAE0cRFOgMlqJV22gSKIR8Ntxdl3EI/CI8XBExqwb1RtbXlsuG4vVOz7C3WQL/fx9wX/OhBbL2+nZAFSOXTgUIRysvwJo+br6hKqVi4ljZV1CmnNrENNQ6GrDtK9wHqmCkgqMlK8ODTqIAd1aBYl0SaAdmgklteSR1dad9CI3Q6NEnLQruK6hFAEVO1lNKkLNQIWT9PKid+igZha9urR0iA5N5W/bb1SR/HXydQp2FILDxzWHSqJxbULVHRVhToyVdjClN9i6dqZGCWtko/WIUD2qSCyzUErgwShATQbkr6iIwfxsOoOqHCKuitcjxRBHZTNnD1KFYlaO1/0dWiAGldsvnAjjO5/q2802wY0rYJUXUgWdIUwRX+86Z6oM005LiQHKxdHAFcOgjSq0070IQliX1wk3eC4oxp17NPmlsAh926HEvwZ1BJkX06UrIMeKQnAynEMRZdDK8AdprnFosTavwGsOvnkxcGLRP3XT502+v9T5z80dWaf78Q1PKY6QKN2LZAxy2JMxYqfHByDMpzYppBsi5i+GsHpwdWP2gkPO4pStqxj3FO0CblRRFeQJjUApwNOmHgLIqkDGuaVqSUtdgCwxsX3BePJORZ/oClKASQdmWLxdWBQuHffD/yBgz78vo542h8O823G9f/++kKX5qsPvv8J);lineShape=1;strokeColor=default;" vertex="1" parent="1">
          <mxGeometry x="520.9688340522725" y="399.55361128263803" width="14.519651437447465" height="22.635542764579668" as="geometry" />
        </mxCell>
        <mxCell id="fGU3WEagON-DqYOOjsWN-148" value="" style="shape=stencil(7VjLbttADPwaXYnd5T7PafofAeLUQl07cNzX35equqpJydMG6KEFepMtjpaPGZLSwHcv+4fn3RDcy+V8er/7PD5e9gO/GUIYj/vdebzI1cD3A989nc67d+fTx+Pj/Pv5YbKcrj6cPk1P+DLjvCMfJ1RwX+d/OFMp3/95OwMO4/EKkKhp+xCp8m17T74oe58oudv2joKxZ3IZ2Tun7R3Fiuy5KvtCzSP3uSlz8R6YB2pZZ5MiCDaR89p5KuG2eaEYlLmjBEolmXDJ2DvgjQ9UorVPwD4RW/uCqFAoNxNuA6XyjXIx2fzh4HbyhWs63gRry9E+32eqIOCYe/EX8ktJkFgaFc02blRByEXIrgGJO6U2ATV2BzogZ6ivVi0pKlMCJ7TWSbYAMmUkGbfSZG0wCDmCNaBxbwPbgEKJNSBTQFFLk9LUkzxEILXmKWsli5NIm7WSXwF+UbmyAngQQ/W90S6AQgHooaz0I2lIiH21U2cBeNi/BBB1B5A0OMANcSnpFjalocGgs+FSIAeosRZElREHulItVHUM4qQHWZKc8ArAIGjJeg7WpYTIV4jZBp2RHhaPF4DMKUCNiZsGUOEYF0DWbaMFrLhKwbA1UQCVltvVnFB699wGBNtcxUnEVulCJq1XrWobIT6tNIq6q9SprDQKu4DsO9WmCVVuArTXAHK1aRK6orGYJO16yskjHOBGlOaqNZrwlsS+S7gDIlNFm0yzWxszXttWI2jaBf6vqX9uTQW5/AvXVDb2/9KaOhVXcyf3d7Bt++Vxi//SAkBCgwRg3gEdHMpy22uPRI5oxsoJzaQIy0sAQeeI8TCY9KGLNm3aYMZKEs0J0WPNRFu2KEQEvJO6mbYoXQ69LfjVfBJARkzNttICCCBoH+0UlxgC0k7ozFkArke1DVg1Uq648b72A8RvAOTi5/eOp/FwmD+XXN+330fkr/nbCt9/Aw==);lineShape=1;strokeColor=default;" vertex="1" parent="1">
          <mxGeometry x="556.5626857689017" y="370.48679714696596" width="20.29572928384914" height="21.056097104508808" as="geometry" />
        </mxCell>
        <mxCell id="fGU3WEagON-DqYOOjsWN-149" value="" style="shape=stencil(7VjLUhwxDPyavapsy88zIf+RqkDYCgEKyOvv05ONJyvNbhMuOXHbh3tsSd0teXZ68XTz4eFql8LT8+P956vv+4/PNzt9t0tpf3dz9bh/xqedXu704vr+8erT4/3Xu4+H7w8flpXLpy/335Yn/DjgahZtCyqFn4dfcpZefv/y/gC43d8dAUoVzRbQZeh5QG7S7A6liDJAkmgBNUgK5wFapdgj1SalE0CQ1g2gJRnxPCCVDaBzQJRYDKBXCSStEX/boEeUnAkgSrE7jCqNpDUGUQfotA5rWdf1g56oeSbFECSQum2Sig0GKVuWtDmQDlIE6ckHnFgNpGaf0UoSBBa59fmF9dHFm0QrW/8neyuHkB+6Prn1kAFd7/LfIUxSryjNPV9FE6tvrVY0K8lPPx/CH1bHVTo7UJuMXwEQDYkYFHIhwIsKOZKCE1Y0eUginIMXuaRmlUiOBLcbFqA6eXIa0KeRTECqM2+ny1Ck2zqgkonUDVkv9khx1fZp5UOZDpClkB169Bbfp1+eXA+hDBszd5ZRJES3PpIAIPRhrSKKEnuHkWTLVK4EGJUz6yKDlOzIOVevkECsBRs42i1iYoC+iTjLYCmCl9iUghSJ7VC81mKfv5wGqFTXQKA1VoWNYS87EAD803WEJQYizo46u6ALJd7iuHlTB6JmANTugELz9c0yqVJiIIJun6+054yw6eJz3junTCf9QONFi1R166mSq89PkM55HWyJEzV4CCdZcyx0TltGFPv8zs8//BSFwS1yq9h6KeuaS8SOcpW2/bGZ4CEb6nZ5UuZImNSuXwtYhOlaVJLMaK3z7xWwFv50i2p++tVE01rXAX8FZDp9leHtSzsdp4rOcXodFTBhsVGhey1gGKEAlW53wO2Neba2GeLqLjoby7n5KNojtUiDxgQ2bOdEZSrZAWR2hgRLY8PI28Xo7WL03y9G1XL6hYtRmi1+XZ8mBc8QLrqLVOGayRJtwC3wlwndRwzdZ/Z+Q6VYyhWMSkSVGGuy67OZ7gC3daRY3jORGHLwnT9nqrLcPK21U7ODYbtbi4IXBIDbaHDXBEwvrOmkqcMjQGY7bPogAOzmVfNk/hGAeUsF1SyX4PnsBSFuj67SuNAGorbafA/RTOVZN1cR3LoToQYA1VJD+bQAgI8BnZY4KgDuwolennmW1LEVd1zCVtQhb+nNsvTaN7v/AMCHvy+Sr/e3t4f30Mf/+xfP+Onw0lovfwE=);lineShape=1;strokeColor=default;" vertex="1" parent="1">
          <mxGeometry x="517.368044944626" y="372.0416543554752" width="44.68588452416998" height="29.471836471172992" as="geometry" />
        </mxCell>
        <mxCell id="fGU3WEagON-DqYOOjsWN-150" value="" style="shape=stencil(fZbdcgIhDIWfZm8zQAg/17Z9j85U606tdqz9e/tmZ0c0uJ47xP0I5JwEBl59bp8/1kNwn6fj4W39M76ctgM/DCGM++36OJ50NPDjwKvN4bh+PR6+9i/z74/n6ctp9H74nlb4nbmSKZeJCu5vngmZ6jzzNAO7cX8FVKEsBuBKrgKg9oAE8gkCbLeUhEoEQKSUDZDLeWYRKIl8MEDRmHwfyBrBG6Amyu4+kDxxMoB3jhwgYu7TVAsVkFcWCs4CTBEoF4RctKeOxHIf8IXYpikHikAIf+MNUW94AGSSaoAoFIE3AlOyeWU+p2E5S9yfQZcQILVuQOwZdJNoS9Ls3wA5u2XZTIHECqeJ9kDpSaauRiNVcAY1QhdBzeLBli5WazpkSsBLV25uRaqWRyFawTQzRRIQYirJzq5atkBqLfouwqUxLBepthWb10vrWZY6UOAeyKCCtDV625mm9gmUC4Wc3VLJMMIE1BsA2FW9JraVlQB7n3c9oMKhCLEvIM1zBPZ25/umNQ1tVEC2G+fFCC8g398O2hNQuQlVu752DBfA+q0ptnqO5JFmeuIuo9DY7KjY71UxdJV4EntifPWorW++R/dC4t7V3DlIB5cHx2bc7eb3yvX//QNFp+bHDT/+Aw==);lineShape=1;strokeColor=default;" vertex="1" parent="1">
          <mxGeometry x="530.4679364284134" y="544.2753979077379" width="4.672539772115215" height="4.665236216357698" as="geometry" />
        </mxCell>
        <mxCell id="fGU3WEagON-DqYOOjsWN-163" value="" style="shape=stencil(fZbdcgIhDIWfZm8zQAg/17Z9j85U606tdqz9e/tmZ0c0uJ47xP0I5JwEBl59bp8/1kNwn6fj4W39M76ctgM/DCGM++36OJ50NPDjwKvN4bh+PR6+9i/z74/n6ctp9H74nlb4nbmSKZeJCu5vngmZ6jzzNAO7cX8FVKEsBuBKrgKg9oAE8gkCbLeUhEoEQKSUDZDLeWYRKIl8MEDRmHwfyBrBG6Amyu4+kDxxMoB3jhwgYu7TVAsVkFcWCs4CTBEoF4RctKeOxHIf8IXYpikHikAIf+MNUW94AGSSaoAoFIE3AlOyeWU+p2E5S9yfQZcQILVuQOwZdJNoS9Ls3wA5u2XZTIHECqeJ9kDpSaauRiNVcAY1QhdBzeLBli5WazpkSsBLV25uRaqWRyFawTQzRRIQYirJzq5atkBqLfouwqUxLBepthWb10vrWZY6UOAeyKCCtDV625mm9gmUC4Wc3VLJMMIE1BsA2FW9JraVlQB7n3c9oMKhCLEvIM1zBPZ25/umNQ1tVEC2G+fFCC8g398O2hNQuQlVu752DBfA+q0ptnqO5JFmeuIuo9DY7KjY71UxdJV4EntifPWorW++R/dC4t7V3DlIB5cHx2bc7eb3yvX//QNFp+bHDT/+Aw==);lineShape=1;strokeColor=default;" vertex="1" parent="1">
          <mxGeometry x="539.2679242213821" y="541.8753734936754" width="4.672539772115215" height="4.665236216357698" as="geometry" />
        </mxCell>
        <mxCell id="fGU3WEagON-DqYOOjsWN-164" value="" style="shape=stencil(7VnLchw3DPyavaL4BMGzYv+HqixHW1YklSy//j492eJkiNnpsi6pHHRbraaHBNBoNLmnfPP1/vb57pTC19eXpy93P86fXu9P+Y9TSufH+7uX8ys+nfKHU775/PRy9+fL07fHT5e/n2+XJ5dPfz19X97w84KLWXJbUCn8unzTTUr455uPF8DD+XEDMGllej6GIIEAorQ+L9BE+/Hz69vG81akRPL+INkmQMOSZENYIeUJoFmaHgNylJomQC3jFVcBJYnGCVCKxHIMqFF03lKukhIBoAzzllCYSABaJc5ZSkmqHQOQxDgTI5pUUjeLI4krIEoiabUutc5Bi7bj53uSMGcVWyR17lnizDwwhaSog2fqnmfE7tW3QpBI4u0q3b+/kQqgEUN18RphHZ7vxeWT5b/3Uc+VpdJZ/rv0eT8qRp7fCMPaymKkC7DATlt4hrqkeYEIUrMQzGtFLJxDTbIjNRqTdEFfOb8C1rRd74IqZQ4aZTOidw1bmsuQUEgSg5qX+KyjM64DIJA7+QpMjdC485YgaEaoV8xTCYLGuFRWaq7cqxSQscIskMhbId2Tm1cXC1LYCiph1uxFARmgiM3kM8wJQu+c/RixTMdITkPgtgBSOEy2oLstEQCo5tKKoFkMaHknekhrJjEAkOZ+aEb9QmreYDToEouheba2QnUJAJvr0BKl9xKD21Ic7DpKq+OS9qFUR1zKc5aqcksCMjuxb2PAXwdE6U4EKqVGyUN6N6pBRaBKDh7ApLKoJx9eYSRLkJnUfNBsPpTuLQO+YVzCv3WOoSbqVgEoTvmqBLYlOD0HQAxshTZ83QrAmixLOjawko+PXZTJDRTlTm/xw9WvYKSny+rsNjEwEcjda2tdZeEIEJOvQ2YACNmu0o2wFSs4IauBqjda1AWNUlLyxXFSWwE69PyoRZ0hQwOxwY5Kt1mXlp5mAB3s36xAydeGRmxi6EzIdi4XLUVj6LvTG85zbAUA5i3huMf80rKBnRg3VmkbO97aH7bCmwFpaMTacW2k4Q32hx2K/xP7s3cz7/bn3f4shYtzWlVFGTWaP1pC7pWPLDen0YORj11vTgK9L1nm/hwDoursWJa9E0h8AqFM6s6iZZi6oyscd+Ng1Ju838i838j8/29kdHTVBsBEvgfp7qo00BgMtJvbAHVjWWpwq3OWUIdKOll3DiPzLGnaMc+o6YEamXN6dax55PTMWZLCNbteucJhN9AJG3AX+zpOW9fprTv5quPUe70OXo6sUt8Wo4/ZuB0G+a17QCNliHnnF3gZFkUvb4qher9gSn0bsuomoUEGSVYB8Eavj4us64DmD6DLLSqLoXkZwyTqnBnqViiUGQDEuaUxW+gK1V/I9EZnZyz+pNRXB3FEjbf9UvcbAHz494fBz+eHh8vvitv/+x8S8dXlR8j84W8=);lineShape=1;strokeColor=default;" vertex="1" parent="1">
          <mxGeometry x="536.0777545140504" y="518.825748345831" width="42.25876805702501" height="27.478731706212784" as="geometry" />
        </mxCell>
        <mxCell id="fGU3WEagON-DqYOOjsWN-165" value="" style="shape=stencil(lVZBbhsxDHzNXgeSKFHUOU3/ESBObdS1A8dpm9+H7kJbU9gl2tta5ojkkENxooe3/dPrbkrh7Xo5f9/9Ojxf9xN9mVI6nPa7y+GqXxM9TvTwcr7svl3O76fn+ffr083y9vXj/PN2w+8ZJ4xGN1QKH/MJJ1T+c/J1BhwPpztAYSQxgBZQaRuQK+IAqAiyDSAGFwOIISCEbUQqkGhdtO50FRALarWAjOp4qGDrQDSH7ESEyMa+Ks9t237Jb6lCAScnAZC9v2REJ35GaMY+Uyd5/X7qdHQAle5yPWECWQ8U3IhIA7ZVToIcnT7KkDJ6yE6RlRKyRaaFhnWSIqqtsvr0WGJGtIBSkKoDqJ2Tpc4MccTDGcWKpwqi0xhFIGns1ObpOXTWFylopT09ByRbBxVb9rTQQDICxGEpCtrggVE8gMrHykEamtd8YDv0JKA4KYTOyFK25rae3maLUKqbcR7HRdZx4cSjCcugttrrvgmQ/wHo1GYbErsZqNiK7ewE9pSQ+hvQ7YPbdUp448HeexKqxm8Ziv1g1V7yqBtVgTON9NFr1l4pZqdkqqqB0Fi7LtYBgpotowXRoejulVyKTMjO/FIdDs9IjhAvCR5ncG7u/GppVFrxO3t9H3Ea6R8WGP34u/68HI7HeXu6/39cl/RoXrXo8RM=);lineShape=1;strokeColor=default;" vertex="1" parent="1">
          <mxGeometry x="572.5383657142556" y="517.2316103584737" width="6.0351090685944655" height="5.653654140886829" as="geometry" />
        </mxCell>
        <mxCell id="fGU3WEagON-DqYOOjsWN-166" value="" style="shape=stencil(lVbLctswDPwaXTEkQYLEOUn/IzNxYk1cO+M4ffx9oapUDFhCJzeZxpLAYhfkgHfv+8e33ZDC++V8et39HJ8u+wHvh5TG4353Hi/yNeDDgHfPp/Pu5Xz6OD7Nv98ep8jp6/vpx7TDrxmXCShMqBR+zysM2P4ufJvjD+PxKr4QVFTxKUEp24DKkIsCFITp5xaAC1SdUU2Q0AEwRNaACqW6ANY1NHSL5gqtagBDyA5ASjSsIjBtAxpB1inJmeQUXRskTatURU7RxFDQAprTOIoQmwY0iM4JJUPQLHGGytuA3IBNDaFvsQ4gQA1oGUp0AUUDhDdyOp2FpaQB0krnBCna1EBygkeriFnTSgWyw1INULMGCNGOlibH3QBKcMRXIevGkbjc84OI2TguuEWLctDQKi53aI1BlKAd1GK3yNYRjTSgup2TORN0Tpw6ces0yQnGECIvhybJOBjAMqrWO5ds5654WFcT2qqFB3Zokvlt5wb1LNcBAVD3miNUR34CyOEG4Lga442FZLo6aorBjmMkaE7nxHI6Pi3zeTU+3LRhucQ24o1WY+nDdiOetS5iBHLyl9vJ3FcQnO0JWKeT+8I6nbHPn4Ue12lxIbvHB1cQsh0lE+9pWqr7N9M/46OjUMz9WlroBHT2R7YWQDc+I2Qzsd3L/6tPqv/Hy8fn++15PBzm59/1//a9J0vzWxEf/gA=);lineShape=1;strokeColor=default;" vertex="1" parent="1">
          <mxGeometry x="533.7001546067418" y="548.3037234608616" width="8.594089963038186" height="12.869389877155527" as="geometry" />
        </mxCell>
        <mxCell id="fGU3WEagON-DqYOOjsWN-167" value="" style="shape=stencil(rVfLbttADPwaXYldcp/nNP2PAHFqo64dOG6b/H2pCpJD2hqjQG+yzJHI4Qy5GuThbfv0uhk4vJ1Px++b37vn83aQLwPz7rDdnHZnvRrkcZCHl+Np8+10/Hl4nn6/Po2R49WP46/xCe8Tjkn6COLwMd1ojVL4e+frFL/fHT7FR6EQLUBIZB3AQjUYQC1U+zpAEvVmAKWRxHVA0udVA8iNIq8DLn/PgFQp13WAJhCyAUglSeuAmn3R3KiUdUAL1IoFxLmq24BCxb4hMiWQUhcqlqVIGbDak2c1UELxxQsjUABC6pW4uHgBTevNKzVC3fVObGXE1HF8S1YU1DMwQljqW4RNscEXVFtwJ8HxUWzBEYpOGYq2YpVEQyVXCtYH6u6Kepx9CQpoqIZEOXkA7LJQuqohIhkxFSeLgFlir7tGjDLSeNuGTB0Yc0zI+kBwE5QQO1t4NtIapWIZCvd6lruLD2ASqY+b92VE+etsTC6+Iz67Fx3jfnXf4ESM47uNL5Tu+N7y2eZBuRbv+FfBVUxQdj5elu5/AkQ/iZTTBGZXUwotR6I1AEBVTmzTZJkdtwELJ0vX8jwKbq/YQMXaIBdo/NRn2y59LnBga8ZshVrrbNXbJ5erJa5Lt6Kzka5M+wY1N5oVyWc07ggQL3NXL9LDS5Y9qRe1366AWvfxyDyR2M66js1z1WRdQQWoIhC7+AJPp8qGVZ1OvwDyv1rh4ykJPj+6Fa7bAcZnxw8ejvHqcK39AhKNnk89vSMP/Otp/368Xlw+LV52+/30ZfL5f/8poremzxh5/AM=);lineShape=1;strokeColor=default;" vertex="1" parent="1">
          <mxGeometry x="544.5762546915598" y="536.5129232523486" width="49.000683864289385" height="27.514967167082204" as="geometry" />
        </mxCell>
        <mxCell id="fGU3WEagON-DqYOOjsWN-168" value="" style="shape=stencil(lVbLctswDPwaXTEE+D6n6X9kJk6tqWtnHPf19wWrkSpQ8qa5SRRWABYLAoN/eDs+vR4GcW+36+Xr4ef4fDsO/tMgMp6Ph+t406fBPw7+4eVyPXy5Xr6fn6f316dm2Z6+XX60P/yacCwUa0OJ+z2dOHLu78Hnyf40nlf2kohjbx/v2wdPHIx9oVzu28dExf5fPEW+D0iV2BuAL8T5PiBXqjbjyBQBoFbKyaZQqYCQqgbgDKB6yh4AIkkHSFQDADD5YgF19rkLKJmcZYkdLnQRSq53EUESuVC0NNVMGUgjR/I2phqogKyzJ7HaUB4YFCKruDvxYV6bh2wBAuXacrAAlZdLkKXEFqAdBQCtDpbWHCi8U2qrb82qgjooiSH0HgpqCJVrF1KGSbeGsJUujgTQ2lquq0OYW2QXsFLzgigUBMZUOn0LBRRTIrG8Kg8V0SRz0y+AAq+ysnxetVwBlVNSXNwAkL718yYklHTeTRrQqlrboRUBVN/SF86ja0Nmca60wSjpjwKitrCtQ0rzCNgfctrUltboYQf51Lec18oADzoEgw1JTyoo3HauS5hHwL5a+9tbHSTgQBmxdZblotrniNhOLOGZ5f2M+z2DC5S265uNE7xiNvcFK8Ug/q29g1vDJh48DDfpRuL6ATY9OdBkm2It+8P/acHBjuTNqoBXi/d3Tn34t7C+jKfTtO+uv/cLrh5Ny7F//AM=);lineShape=1;strokeColor=default;" vertex="1" parent="1">
          <mxGeometry x="575.2603139100956" y="515.4446853036548" width="16.988169052709054" height="17.93682880814913" as="geometry" />
        </mxCell>
        <mxCell id="fGU3WEagON-DqYOOjsWN-169" value="" style="shape=stencil(lVfLbhsxDPwaXwmKlETpnKb/ESBOYzSNA8d9/X3pGtpaXGea3NZrzooiZ/jY6M3r493LdiP8ejzsv25/7u6Pjxv9tBHZPT9uD7ujP230dqM3D/vD9sth//35/vz75e5keXr6tv9x+sKvM846pXJCCf8+vynU5O+Lz2f7p93zhX0xytG+57ftayLmyT4xJXBAZeI0AzI1cIJ7lPoEEKZSAECpzi5Jpc5vA3IjkwmgSqUDQKFkM6BTbwAg1HUC+CdKAoBE0uY0MKlCANcZkKkglxLlOUqlYZeU0gyoMjJzHWCDOQugUQN5KP69+dKWSRE1Kul86cZUKyCfjpgsACMBJ5hHaT6h+5mAfMbRpe6KAlGqdXi8AHAeXEA2c6l3SA3Xg3AEIMVlF+TsUmIeMr+K0Brj6kcYuLX0EfYLgIBLyCpzHiYF/PYiIRITgcKUOpUQpgr5LWkFKMTIpRprZc+UQKpVqIQoKSmSHFMO3PDKgwCuyLICAAW55HqKLgnit5JZBHSgIC8SlmKUGgirazRm2nuWQQCHKBnuWY3SSqOIGl4ZY5Q6MQCUMhR5KSBUjY2qRQDKtHcoWUkUdUV1eq/qTAaJ80lBNEapYgHxqlYacMklmkOUKmxyHweUwf4FwJBLS9CXhoLJWkhnYpgNBV7Pc5yWTAZ5r18gdnXvLwz851FEL5p6BingWMJ8asiglyRKMyd8LMlAahKrRcGdp1Ce7X2wEvB9izpTrDMn0Bx/Hw3RwODTb5j0vOpXkIDkIpirl+BJzwGyGqChanxgmDltuE3pmHCWA2CKTyvDfGWcsvVKgjcGV1QYC3kMNNftWyy+DP33fsTx+w0kwEtIKCoJjoReBa0He9RiL4athRJUESPWAB1l5p0eKVxf1jfOcD9aR7SM3eGdGStjtHonIwoZmuI/uAT/394f/m3cD7unp/PCfvl/3ND91Xm719s/);lineShape=1;strokeColor=default;" vertex="1" parent="1">
          <mxGeometry x="528.2544283993916" y="552.3172339997313" width="9.532656170430528" height="70.15244878958492" as="geometry" />
        </mxCell>
        <mxCell id="fGU3WEagON-DqYOOjsWN-170" value="" style="shape=stencil(7VjLbtwwDPyavRKSKInSOW3/I0A2zaJpNtikr78vBUPKio7H6KGXojdnMyOL5PDlA9+8PNw+Hw/Bvbxezl+OP053rw8H/nAI4fT0cLycXvXpwB8PfHN/vhw/X87fnu6Wv59vG7I9fT1/byf8XHieQmmk4H4tPwj55YdPC/zx9HQFL8R5gkdyeRvuM/k44QO5CPCVwoz3xGEbH5jifB9HwgBfKInBs9vGc6Rgz3dpGx8dBWfx4PyY+3FveA/8mfza3uQBXv3Pxp8O+CdVkmLwAu6fg7U3UBSAZwqzvQz9r+cXqzcP9JPVPDH4ivCFop/wlRjcX1SOdfZPpAIEIanbNxzkoUKLozhHQK9UQAoU6YoZLi0wJ2u0ORYTpQoIhep8pRRIgNHeDdUPRt17hcmznCiDQNREIcx1S0MDIl2517VByMTAiOptqdDQZBSI1FNrEMpe8vP8hlph9mhgY7WECtKfnb1SI4DyruI0+aaEjEIdV4QC36AFJlq8A14VWyBrpgLOF1sA6o6QSIxLIyXUoUZBGQSmhF1ajYfCXtBMz1QCSh6VRXaWkEEFUOFFsTZ4oFTN9xosAUUhCQWxbq0gzFof3JyeGmcHjE5l5SV9JyJoXFdKZWBDLCTG6Nq71/sEb2uSEgqKdOi9Y3QTh+cFbWfrClAAwWs++JURSN/edvQ6Zr6NhMtpFQc0ApCYMOSeshsTpxW3KglZHGy3aloFL9CZ08xUSkDSa4RkCSh9OHehjc6Qu7Y2x8L5Stp7UE+P1UZBB48CwpzYlgDRyRl4STO6zMrTDs1gkGmj2JwNmuOoKmXXlTwI3KeCreHWFJmYcUZLL1pXo1JBlVWlPGePFmfUDlXdpjvoQJyQWqt1q099ANzcqOzEWkAY/oUNzG5IOxuYrxa/s4FFg/+/gU3n/9UNLI38GHWlr2Tvx4vXG1tEpdT1Yeutx+JiLV3vV4QMMrJ18dli7aEepYz0qeCKwKAMtZCyJUTUocSKuhFQGVoNqc0GIFOxc0hzEqqkKx856KOxzF1FGajI2V5T4G1W66nA4fQPv5HtwvXh7XPc/enxcfmad/1/+/lOf1o+/fHH3w==);lineShape=1;strokeColor=default;" vertex="1" parent="1">
          <mxGeometry x="543.4943472992572" y="559.8110893709288" width="8.528812205217946" height="60.123011310884294" as="geometry" />
        </mxCell>
        <mxCell id="fGU3WEagON-DqYOOjsWN-171" value="" style="shape=stencil(lZdNctswDIVPoy2GJPgDrtP0HpmJU3vq2hnHaZvbB6xLxYSll8lOlvSJIPDwCE9897J9eN5Mwb2cT8efmz+7x/N24m9TCLvDdnPanfVq4vuJ756Op82P0/H18Hj5/fzQ3mxXv46/2xf+XjjvKedGBff2/44Qp393vl+A/e5wDSTiMgKeAq8DIffHHQiekl8HWCzATNGtAylQdQMQM8W8DuRMMgJJyIOQipCEAciVWNYBKeRGQD/hCwT8WAfxcNNSqY5ZEkexrgM12D0okMEKNVFiG1IBWaqFiowAY0CTaELKxGAP3jlyY+U0DxHkVZcoaQA0DxnItQqlcRMtDxEAmXIcgUICtFFj19oM6B4CALTBTI9+5GFZHNK1c7VEAl0ticTEpHoFMbXK3qRJkMBDb/oZ4N4ja4Af86ql/mSFYrSRqQAbEC3EqA29A0NSdY570I6oQOBah2o6QnsOacP3LV53NSiciikXGxKyYxWnN1lS+wRZUiEYd1WxRNQQtct/BgTr+8bKNA0JWVklN266pQGtUIjHDmppQHVI1mfamsjKvgpkNQlj+EwBACnbOhR1MiCNGHpO5kPLEwPXaCf1GFIUaH0+UBgbiFO32+UVutLmUSDCiG7cPnalLMcTrQNgm/TZDj+ud9Py+7OOZyMmQfFU2806yIAS6/J1tDwdtkD+2yA15r9QBKrW97MxbSqgbfR943c661UUkOuH8QwwVXSg1675GUjQs33pzjADpbv42rxaTM2ku8cywFZErewgq18foT8H9OJjYn/a7feXgf/6uZ3w9dbl3wHfvwM=);lineShape=1;strokeColor=default;" vertex="1" parent="1">
          <mxGeometry x="531.1664726533536" y="614.0719773466808" width="23.017099077479543" height="21.015763448673624" as="geometry" />
        </mxCell>
        <mxCell id="fGU3WEagON-DqYOOjsWN-172" value="" style="shape=stencil(lZbLctswDEW/RlsMCb6AdZr+R2bi1Jq6dsZxX39fqioVEZJvJztZwjEB3guQQ3h4Oz69HgZ2b7fr5evh5/h8Ow7h08A8no+H63irT0N4HMLDy+V6+HK9fD8/z79fn6bI6enb5cf0D79mLgk5P1Hsfs9vMmn8++LzHH8az6v4nKmULp4dOQRI+9yAIJQyBLzrgJSoJAiU3AHFUQj3AfXk+hokkoAVNJMYoJAXAChJX4MoKUpJ2540QLn9xb2U/iWwAIkSApwVWgsVIJx4ytoDSgGsUNgK511dFBCZiYNdooB9TYG8AYQyUC4u1lmADKuOjsQIEYkBUN2sBvAUGa7Axky1IQoAIuW+gySRKtilqlwvtYSW5L4OjmJfgzBlkFJtMN4ADIQr1f5iAfHAfVVX00FVB7Ct1f7GS5IpoKZW8hsdFNSwcvNKajg3ilVOFy33AaZggEIOKCcbb9SGEKRcotBXPc0qAOREUSygoOiUN4Om7jRqiLLpoEIRNXUFykcAz+3z6oSIQIcJ6M1UzyAFu+Tr2OiHZVByoEeFYm8lrqMNlLDk+z5byYEDZWPVAkeGt/2My43k+2xiG/33iu03h5un9pOJrbSlWNj6vBlfrpl8P77YzcfHVIjWPg4b2pNXE1+AVtXPbMTFpyDb+NBm3358FbOvN8JB99E74f/j68P7BfRlPJ3m++v6u72w1lfzZTc8/gE=);lineShape=1;strokeColor=default;" vertex="1" parent="1">
          <mxGeometry x="545.7900616544475" y="610.790567635177" width="6.8777553854984035" height="23.681517463520777" as="geometry" />
        </mxCell>
        <mxCell id="fGU3WEagON-DqYOOjsWN-173" value="" style="shape=stencil(lZbdchoxDIWfZm81tuU/Xafpe2QmpOyUQoaQ/rx9td0asKhPyd2yfFrLR0eWJ3542z69bqbg3k7Hw9fNj/n5tJ340xTCvN9ujvNJnyZ+nPjh5XDcfDke3vfP6+/Xp4Vcnr4dvi9f+LnGeYqyBAX3a30hgST9efN55Xfz/ooXktjxtVCIYz44irULKJUqWIAj+T4gZ3JlHJBc+14LiEIJBORKHLoA9pT8OKAy5V4kH6kyEClZlRwVAXym7A2PRJVCLIZ3DvDVaurIY16c4RPar9gie5y/UM0dH8jnMe/deX/nkpFHguoCfUKRQoB86i2RyKMuqK1JLvzfBUd84N7UxEjQQjEZPgKBFgMVw8MCqEHF5F+QPqktf9FTcAP4nmcSlL/yfQPoKYTz4Z73zbEjviTDO5S/lqfX07WOG9XLB8M73MByw6N8qq2v5oP8KVYfRwKOROVLNvrAA07HQN9fgSpueNMvjPtFKFu/VeQfsX5LTbD7efD9mpscZ30EJlR0rvYFYG1RsOPE9shNEVqa1XK9JXTNDAJU8mBGt4oKAny4uRvoIARdqZO7F0nwIGZKzvIVdJl6rG+aq7kwCPDxIwv4fySENuDsmFfeAVfc3IW0r9Gx4qxL9dxIkDdTUs8xdKzf8qlJfGc+sSlw535jq8hIT2Mgpgj0/+jl9f+8Plxuyi/zbrdetK//tzdrfbXeyvnxNw==);lineShape=1;strokeColor=default;" vertex="1" parent="1">
          <mxGeometry x="549.5364152889447" y="592.4427196019187" width="52.01332493808195" height="39.431443956355" as="geometry" />
        </mxCell>
        <mxCell id="fGU3WEagON-DqYOOjsWN-174" value="" style="shape=stencil(lVfLctswDPwaXTEkAL7OafofmYlTe+raGcd9/X3hatiIkLxtb7LMFQnsLgBO8vC2f3rdTRzerpfz5933w/N1P8mHiflw2u8uh6s9TfI4ycPL+bL7dDl/PT3Pv1+fbitvT1/O325f+DHjUqXabigOP+c3TC38fvFxXn88nBbrM1PWYX0UqgkAEqUybpBJ0Q6ZJA0ADRQEACpJGABJSPk+oIR+4g7ISrkAgFKqA6BYlvQ+oAaSMehSSTMAGA1jDDVRAUdqjXTkoRVikKWWSEeiWyVu8EiJR0CjCGIojTh5QEHSqJTzqKVgVANtpOKZsy0qCEILtRUAaeOmtejTlAHVoqsjFcogapHVDpkSYM52yI454zICgKXd7aDQcpal5GIQyiBLxoNUD4ggS0Z1LB6AmC4rQxiAkeVsh1UMFcRgSWT1WcoVWk7E81AAcQs1L6iuwEImHZ+mPwLeBsSe9oVckSEqd60tDJEAwCodZw9oIIYcu9b+EZAiheIBGehbeaW+Sg05KBOzByD1iay0kakhy0mvdEttgPq9DQDqY6vWo6mrRYUBvmmZNEAMXFYA6Z7aBqiv39ZHkeXYGu+4g3VqVPpi8S3F6nMEMUQlHsVn0wbSklWN0Q72hQh4WzkaV6XQu/77dJWA7my4Gr8eexXctpoffCJs0DH6ySrA1mbZV7+ewfdND841li3UOu08q/XIldUX4ACbjqrvIaEPTduFKPi6EuAsnNR7OPYZ617XdLMzQ63972z+9/X28H4ReDkcj/M9Yvm/vzjYq/nSIY+/AA==);lineShape=1;strokeColor=default;" vertex="1" parent="1">
          <mxGeometry x="592.4886022353476" y="538.2895196315533" width="5.811621434321751" height="55.710995881336885" as="geometry" />
        </mxCell>
        <mxCell id="fGU3WEagON-DqYOOjsWN-175" value="" style="shape=stencil(7VhJcttADHyNrqgZYNaz4/zDVZYjVRTLJSvb7wOGGdsAxXbplBxyo0Q0B0ujAXIjN8+7u6fthsPz+XT8vP2+vz/vNvJhw7x/3G1P+7NebeR2IzcPx9P20+n49fF+/v10N1lOV1+O36Yn/JhxsRL3CcXh5/yPNKrx9z8fZ8Bh//gWEKiIAXCnWAGAOBr7KCSybs8UsrWvlPu6vfrTrH2G/gQKwdozZYb2ydh3qtCdZh9fKRYULdtsJqrAPBHb5DDVvG5ext2XWMdxF807ZZvKMMhxubK8tP+T28v2mXJx9gKCjW3cfnUf2U+5Z5ednoA9j0oO+wz9l0rB+VMogXzmQNlWVwJFkNEilKqlQ6YGClyFqi1B0ZyC9m2Buo25RgoIoKSwHKqVCgB0bW/rUm2QpL1QsS0zOYkAjZqNoQl1QIzefdCtjkSvARwzeqSIglaqWur1RBkBMlUHqCSAfF2VwlJDnWQAaOqSFa4YcH+2tAiiUwHSqHUqlhuaB5QmpU61w0DzgMhUs5dTzUMCMSgg2pbTPDQMqLapW4Z5nejvTojUAZk0S76DOiWgS1oHdjOkUseldjNWAalBMkXnUhuTZY2uxVJDo3qnIdykakwNudQXdSjEaDqExSRXrerYp+5GuUD9npTJyYAKPhIafZ4DtLGerKmr2140Dw2coOQsaQFAJ1wLyOKXhqorGVCBpEpn65D7aMLLc3S59GTY1LH7phahcOUOWcAB/9wO6abP/x3yr+6QiGnX7pDBy5x6iCRFFvnnBiPQLbVZsumZaMbqC59YNk/dBeaTAqID5KF7ay6xDXpyEilE9lUQlXbQYOpxc4tzHLp3GRD9ap54bJWXC92GAy8AgZqijeOmuALQmzXLwiUhRu8v0b+PaAxodYmLAZiUGqh7rv468D5AL14/RjzsD4f5W8bb+/7jhf41f/iQ218=);lineShape=1;strokeColor=default;" vertex="1" parent="1">
          <mxGeometry x="522.884600961464" y="672.4537254896836" width="18.19233048224578" height="20.1189770948954" as="geometry" />
        </mxCell>
        <mxCell id="fGU3WEagON-DqYOOjsWN-176" value="" style="shape=stencil(lVZJbhtBDHzNXAn23jw7zj8MWI6EKJIhK9vvw85gJJPylODbLMVuslhcpvTwtn163UyR386n4/fN793zeTulL1OMu8N2c9qd9WlKj1N6eDmeNt9Ox5+H5/n99Wkgx9OP469xwp/ZLlDowyjy3/mDRBL+/+XrjN/vDu/xgbgYg55J2rpBTJTYGDQ1KOsGqRNnY1Aj1bRuUDLFZgxypwgMGhPboFOi8bpm0DUG61IQ6n3dQEms1iWhJgDfqFtWK1XAkeJTcPgIkiCVejX4QgX5X6lYfKZaIT5HyyhVoKKBt/xEKiABim823oDxjYIVHVPD+BocPqB8dV82KikUb6dW/PmIT/GSZqwHododPxlUgOIlOf5zAFXPl/iuCc6IoEt9XAVUcABFnEDvnB+sQLUAQACagBodHvUUxbMvyIbOb5S7w8MENM9noZ5hAdTs+BRcwNn6n0juFLA9P1LHDaX6grzjv9h8MfanLfRd8QnzKeLwjPNbfIExivez+Ly4e+GnUAAGY4pagY4KAC2lBZ8BHZwoZaVQsynWwcloEMuNpvuiwo9HfaZmSeq6XoAbQvSsSlgGycc3+Au0DzRAUqQUPR7tHhcRX7LGuLEHSjcOdaA7VX32+AzqgP0cViGi9Yz93BiTCvTRm01obBZARDdjYDQOfL4tAylLo1/B+3U0L6pdwbs2IQn2Rb4RkK52UBCfXI/v4vXhuou/7Pb7eZV//9/v7vpp3vvT4z8=);lineShape=1;strokeColor=default;" vertex="1" parent="1">
          <mxGeometry x="535.0734371896347" y="654.7557771096813" width="77.19410046602206" height="41.16913462454795" as="geometry" />
        </mxCell>
        <mxCell id="fGU3WEagON-DqYOOjsWN-177" value="" style="shape=stencil(lVbLctswDPwaXTEkSPBxTtP/yEyc2lPXzjhO2/x9qGpIBXC0ndxkeZcCFlgQU7h72T887yZ2L9fL+efuz+Hxup/Ct4n5cNrvLodre5rC/RTuns6X3Y/L+fX0uPx+fpiR89Ov8+/5hL8Lz1OKM4nd2/KiFGL37833BX88nD7iI7mgCDlTkW0CN0JWhFRJ4jYhtL+TIkiiwNsEEcqsCNFTBF/ITE4nzUIlbBOKUBBF8EwefKEGKl5/gaIH+JucC0mGeKcDqpRBEWqhqCXyjmIChEw5WEICEjWCiagRGEmUegBrCgHjHRuJHGjU2rrC9B2FivG6KSIlpJBQ1QoxVXT+aOIhEC5xolIU3kHbtAJINHioT/N5sHjgsoYv1caD8q3dg2u+CbVopaL1CeTA+d6N/NaCZeyZqhsukSCBKiWdcCGP8awTrtjzxY7e2TFI0WwTmD2JW4KzJURk4mRDGhps4b25PShij5VgSlBRT9xMdsEzpZ2v4wkkOF+vBWo3AyrZV/FCUXvYe9gTJVmTMSbk0Ht4ZNzuKkCQbFMQTx7UILpeolGzBAd1q5EJKdc+Kj93stjJ1XaQDJwW7OSquE25D/LVBng2sl1Z1tnxeQYk3uIF4F2/KQa+wB3K9Zti4HNv9A08m+2gGRs0hbvZJqRLvIXXFW77Dhq9rk/ygWe40bnewgPvoP7OFri0daigenl9fms4pOeXl+T/4tvDupE/HY7HZaH/+L/d4NurZfsP9+8=);lineShape=1;strokeColor=default;" vertex="1" parent="1">
          <mxGeometry x="533.4274118643043" y="650.0991004458579" width="64.56394992108471" height="25.867535253491496" as="geometry" />
        </mxCell>
        <mxCell id="fGU3WEagON-DqYOOjsWN-178" value="" style="shape=stencil(lVbbchoxDP2afdXYkteX5zT9j8wEwk4pZAhtk7+PnI0BC/YwfVuMjq0j6Uga5OFt8/S6Gti9HQ/7X6t/0/NxM8iPgXnabVaH6ahfgzwO8rDeH1Yvh/2f3fP8+/WpWtav3/u/9Yb3Gec9FVdR7D6+T8j7r4Ofs/122l3YC1Pg3j6QG5cBI1PyHaBe4ZYByZOkDqBXlLAMyJFi7ACJoUslW5eyngCXSrGA4iiVZYB3jlwf1iLkAEKfGMceMJJESCIYn1IL3G1AbBxPgNxyfxsQKBpAoYwATMIWUJBLrtXaBUBAlDRPfMXBC6yNlHtAJAH1rQBnXAr4hbFRPAE8ZfyCKddcWqCXSJtayokSA4CmqXdJ30Rh1cQ549JICZDWmEiwAERaox6uXIroBc20eSHfE1AwAnKN1RKglB7AsDRqFzC1pAoBeVAOuQ9r1SDoZFXBRkCqcsRBe4RYAY0ZALQL9RwuWtWSRvOVqCMQde2lxZJAYdJq9sWGCbWN/wakaMOUXRPhTUD0LewNEBkqKIjtxnrCIKwcbJQ4wTwI5V4POncz8IgtZS9tiN0eWeR7+XiGBFybTudCogBq+2og5jbwFsx9bx5hDWk6e+81vKAgfOs9p50ELj26fxiusDuGJsFm7mC7PvXmszkcOMTWHNWNpsVHYy/g+roQekMWxeb+Aqkf5+1zPW238/J6+b/dVvVo3nTl8RM=);lineShape=1;strokeColor=default;" vertex="1" parent="1">
          <mxGeometry x="597.3841946785897" y="648.782864249712" width="20.525302335842753" height="20.203899378139795" as="geometry" />
        </mxCell>
        <mxCell id="fGU3WEagON-DqYOOjsWN-179" value="" style="shape=stencil(7VjLctswDPwaXTEkwec5Tf8jM3FqT1074zh9/H2hqpRFUF4nnRx7k2UsidcCOxr47mX78LwZnHk5n45fNz92j+ftwJ8G53aH7ea0O8vTwPcD3z0dT5svp+Pr4XH6/fwwWo5P347fxxN+Tjgm70aQM7+mF5Gi+fPi82S+3x0W5rZQ9o09EwN7b8i151uyEdhHMu35hiJftw9MhpW9C9fto6Fslf3fC9ftM5XOHsSbIuWo7C3wJ3ty+nyfrtsXQ8Ep+wL8L4E8q/wHZJ8phsbekQP5t2bOxwVQMrigkG/tmRK4oEhCc2PvyYOEFkehtQ9kCgzYtQ1nbW2p9YoVXTFJKTsAMJUhc8QR3pAkI20NpMtR0ZIj38aQLAxabgitSzlQQm2d6t8VUBIGREqtS5Job6FLXFpAIQMmhTBTNZ4AAqBOlMnjNaCAGMasq9llMPt9qGRcXJGBTyzN1AcBeoP9StTIJTaaP1IIBs0kAJt0qdEIZkulbVfhbEGAqGe2ABCDvK0jZQYEmFZfyHaACLovdFNGAAEwKMrcjhqQEOVkcEcdtEMMCmSdBiQwWYWjXt0wv7kGYFWHXPO2DvB6MAkgo20rBOtI7UGlo1AuaEDGhTPdDQXUwc9jaAkAfJDm445xEaSVgx4bArDAJSFQjDqtaJKNFFWFS3jMvBcgS1bFMC4IEPRFVrxxBblOGMq4RQtCdIJtsySJRq3hkm4Nhze7K1XqXOZ9VUPraRWp07oUoPj8FzGsxe1Hi2Gj7G+J4c7+g8WwPv+WGNbi+b8YVmK4pQAWw7JzuN39EWqwELT/BTZ0kFmqxjtUkT0BhJEWiZeiZacAPAK4usCWnAcuuXkOvhFgs67ZDZeso6hlZx3f61Xr1jhFtG6q1lrUDLgjM6I9PUOB2jEAL5pOnaY6Iq/4/q6vFTfN5eHyYeRpt99P31WW/+sPKfJq+gjD978B);lineShape=1;strokeColor=default;" vertex="1" parent="1">
          <mxGeometry x="524.5267958553181" y="680.7830909544682" width="5.688944888544029" height="61.12520331223959" as="geometry" />
        </mxCell>
        <mxCell id="fGU3WEagON-DqYOOjsWN-180" value="" style="shape=stencil(lVfLctswDPwaXzEg+AB5TtP/yEyc2lPXzjju6+8LVSPZhKxtfVPo3ZAAdgFyE58+di/v243wx+V8+rr9uX+97Dbx00Zkf9xtz/uLfW3i8yY+vZ3O2y/n0/fj6/j3+8uAHL6+nX4M/+HXyGuNsg4s4d/jilDOfxc+j/jD/niDr4lS6PCBSds6QQOJ24CplnVCrlR7QoxU6johFar9kVKlEtcJsRDnjlAiPJJU4tYRVCkoICQqPaEaIQFCJk0doUVKIOgoVPqgm5IgQiRVT6iYkLkn1GnlPiFQdTE0YrCDpbUtCEh8lqUQPaGiOpjU+hgCMzEIIhSKzW/RgJiCUKyeUICYGoUFXsAGuoi5QjsUSsnjGeRIF+dRSqAIbZLZjC/UAkxQFk9A0rYS5OIJIrDKTT0hID9nkuYJEajCgubFDgUcybzQxGc1IPOY25InoDIPfu6bmNUZxWAdw+9g/kMEc8rCbQlUWua63hAUNQDxs2EwG5KG3mkxDYg72OhYEBQR+E6LiWi+UVGfVdRWH8Wzn89tVsoKnvuOVwtMaSTpZaQ2TkG8liDXtG14ZuTOQLG3go1nARGYUGsvI9O6AKGmNDnl5oqBCHkexnNSqYKWp/ONZR4jU1Xu44WCODwyvyZ/Hp7uD/fxxY81pojObyYpDh9AyardPcTh0dC8Suz/8I39jMLnMcmXR+Id5oX6fAIPXDvntV4M8r+8NIdpZK14ZuFKIUZ3hAdv5f/G28f1CfC2PxzGF8Tt7/7JYEvjcyM+/wE=);lineShape=1;strokeColor=default;" vertex="1" parent="1">
          <mxGeometry x="537.3762745936297" y="692.8801565655358" width="10.35450616327762" height="73.793546596527" as="geometry" />
        </mxCell>
        <mxCell id="fGU3WEagON-DqYOOjsWN-181" value="" style="shape=stencil(lVfLbttADPwaXYkl931O0/8IEKcW6tqB47TN34eCuqqXkqboTZY4yyU5HNKDf3g7Pr0eBnFvt+vl++HX+Hw7Dv7LIDKej4freNOnwT8O/uHlcj18u17ez8/z79enyXJ6+nH5OZ3we8YxuTCBxH3ML8RTmN98ne1P4/nO3pFznT0LSd63jyTGnqrfN+favDf7xeGmvc9UuT8/t4g2ASGT+A7g9UYJBFCIpQOEQhVcKRVKvYcUKPA+IGdKtQPkSB54qEzceyieXAGAQDH1gNCO2AZk8gYQqYK01krS160U8qjQbsWkyrBy6iLmHuCpoDQpN0oPSDivsdVpARQMEFuI6ZKgEJqU0Mdwl4dtRKAiKxcgsYVXaSokiH7VSoCmiUEQytcothApQgDHHuCoVAgwldPEMQJUqv2VlK8FZUkorzrCgRhKakm87zkEqFaZ1OefS26TyVtuqIcEgtYyRbZBIy1WImSjG5kC8lCpmA5yTQ13AYZLAsWyrsRSmzACtk4t3BdO2zwjgCcxMSxatVe47CwATQilhmMLyEgF/hegM8iIgFKjgDoE1QgzUhjqt1dh6oOOiRLgkg52Uzhf8YRoc39RvtSafNuBUOoLzUwJUEnEaoC+ySBJ0+e+DBJgw+nuUvqsSmpiuw1wFHruiWoxEA0ubXwsgEoJxMDLRFvK4CiBdmBPuVcZ3X8YxMCrZUMBgtqBYrA3KsBBssNB7R3iNrGzOUXNI1YlJbeddDtgK8NKdQ/O39yg0ebzz41bH/6u6y/j6TRv+/ff7Xqvr+a/Bv7xEw==);lineShape=1;strokeColor=default;" vertex="1" parent="1">
          <mxGeometry x="523.2715066908427" y="739.3239776733199" width="17.7693496332181" height="23.727710737081452" as="geometry" />
        </mxCell>
        <mxCell id="fGU3WEagON-DqYOOjsWN-182" value="" style="shape=stencil(lVbLbhsxDPyavRISJepxTtP/CBC7XtS1A8dpkr8PtwvZK9Y7Rm7yekiRo+FjCA+vu6eXzcDu9Xw6/t68j8/n3RB+DMzjYbc5jWc9DeFxCA/b42nz63R8OzzPv1+eJuR0+nP8O3n4mO0cSZ2M2H3OH6oQp39ffs74/XhY4Cul1OFLIA/wHEhyZ5AyZVk3iEy+N4iVil83SJ5qn0JQF27dIFdyoTPwmRKDnB2xdAaaQgB4oWIuIF8BPlHo8a6Rtoav2eDRG1RNrxq8AwTVQtFb/4gfJdTGI8h/JSmGH4f4qVSdwRcgIe8u+TUDbgysXVB6VatqccLS+49NIWuEVjF4JGnFc0+okI/wgSUaPKMHSFagggWRiNnELygeoWz5LAXixRs8FIRY/pn4Tjy9f08R4VOj+yrojAosUbZ4RgWc2/WLgkR6K7YnKh7rzejZUUD5Voq2ARUUv9YLGz7lTgH3DYhbh1nF9/EEXF86lXo+I+bzu3i2evYedrjiW/+4JIwNUqRkKkBak789JqOlVEIbzbcHsWq0DylrEYCi9ME2oZIooZAo9hdMbQ+oIlDtp8AkQ5BBoCgWXwCn3DS8wFeQMLfF5/LIDs9J3+hYBoTmEvlg8aiNuhv+UVvUIvf2AQTsKa55u+AzbNP/TVXFo71G8T2h2idRETj7ANMiBfj87u56H6+H66K8Hff7ec9e/m8Xa/00L+Xh8Qs=);lineShape=1;strokeColor=default;" vertex="1" parent="1">
          <mxGeometry x="547.8241946174044" y="710.1608981773097" width="62.893186607449024" height="54.6079114189306" as="geometry" />
        </mxCell>
        <mxCell id="fGU3WEagON-DqYOOjsWN-183" value="" style="shape=stencil(7VjbbtswDP0avxKSKFHSc9f9R4Gmi7EsKdLs9vejYSix6PgUfRuGvTkOjyReziGtgR/e9k+vuyG4t8v59HX3c3y+7Af+NIQwHve783jRp4EfB354OZ13X86n78fn+ffr02Q5PX07/ZhW+DXjPEmeQMH9nl/c3nye7Q/jcWmfqYYO4IV82Aawp1p6gCdXtgExUfQdQCjxtn0SCtK7QA54kCq5fn1PLNv2EqhwZ+8oI/tMsRp7BufPgbI39uj8uZC36zu3bV+YJBh7D85TCkkx9hH4W7ml82ZfE7DXdCYT/1SBfaHaxyfAeHp3jUcDMPkINqiUs7GvyOFCoS+ISBk4nNkWqE8kYIMU7AZBcwJcZqHYpyBGKqCGWI8Ue44pCRCLayN5A2SlKWKZs1VaEiyLiTb9kbRQKthBAWIAmTIoJBFbqJrJBJRImV/7PGipBOBD0vW8BWSkXZqHagEViWOmstoBRSkGkmQBAqLEhXgF8OBInFYADQMQJC0+0xGmxCFAJDYAoYJ8ECvBCkCaF50t75paKu8DlF9iAR74oHwwnK6RKlCldNWIxQ4OEcg1GV0AIjiSxJamBQAVnxLIJk5a79qiqFFWzXQCMqM7ZONDgWKvPngjAtreQVg1Sm7FOEGJSyvVqE0W7pdGtf120ZG2iomd3aKAuKoar0nNSO+lUXgR1wzCpJQLZocMdebDgGkK6WujCBSm3JrsogMVEFWduvpEa4sLoPZWc6qmBene1MRNl9YWhnoot15wLQzGEvAXTrZ20ntvsnXG/v9k+w9NtpqAYsS0zZX3C6ja+UgZkBADohUJX1qM73MsWxlSFxxwWXXLcEABaDjX71njQ9DODwBh9T2oAPRBq0kyWVYAEmuNCa+OlJF0cVPaBUBQZbdBYmGP+k1arR9hzwy27YfryLeh7cVkmWGEVryZYgz81WGtJ/7ETGD/4VuUd+314XZl8zIeDvONz/J/e8Wjr+brIX78Aw==);lineShape=1;strokeColor=default;" vertex="1" parent="1">
          <mxGeometry x="610.8454636778815" y="656.6190692354148" width="9.01512327536966" height="60.26394858543881" as="geometry" />
        </mxCell>
      </root>
    </mxGraphModel>
  </diagram>
</mxfile>
